<?xml version="1.0" standalone="no"?>
<!DOCTYPE svg PUBLIC "-//W3C//DTD SVG 20010904//EN"
 "http://www.w3.org/TR/2001/REC-SVG-20010904/DTD/svg10.dtd">
<svg version="1.0" xmlns="http://www.w3.org/2000/svg"
 width="3000.000000pt" height="3000.000000pt" viewBox="0 0 3000.000000 3000.000000"
 preserveAspectRatio="xMidYMid meet">
<metadata>
Created by potrace 1.14, written by Peter Selinger 2001-2017
</metadata>
<g transform="translate(0.000000,3000.000000) scale(0.100000,-0.100000)"
fill="#000000" stroke="none">
<path d="M0 25345 c0 -2 169 -582 226 -775 14 -47 45 -152 69 -235 24 -82 73
-251 110 -375 36 -124 93 -317 126 -430 33 -113 65 -218 70 -235 13 -42 172
-586 269 -920 45 -154 94 -323 110 -375 16 -52 38 -126 49 -165 11 -38 34
-115 50 -170 38 -128 90 -306 136 -465 20 -69 49 -169 66 -222 16 -53 32 -105
34 -115 2 -10 31 -110 65 -223 34 -113 63 -213 65 -223 2 -10 15 -55 29 -100
32 -104 146 -492 156 -532 8 -30 57 -195 125 -425 21 -69 41 -141 46 -160 4
-19 15 -52 24 -73 8 -20 13 -37 10 -37 -2 0 0 -12 6 -27 5 -15 34 -111 64
-213 29 -102 77 -264 105 -360 29 -96 58 -195 65 -220 6 -25 33 -117 59 -205
26 -88 75 -252 108 -365 106 -362 156 -533 183 -625 14 -49 51 -175 82 -280
30 -104 73 -248 94 -320 127 -435 182 -624 190 -650 4 -16 24 -84 44 -150 19
-66 37 -127 39 -135 6 -22 154 -529 165 -565 5 -16 31 -102 56 -190 26 -88 74
-252 107 -365 33 -113 91 -313 130 -445 38 -132 83 -285 100 -340 16 -55 32
-109 35 -120 3 -11 18 -63 33 -115 37 -121 89 -300 134 -460 20 -69 42 -145
50 -170 9 -25 35 -115 60 -200 25 -85 57 -195 71 -245 31 -103 87 -294 140
-475 20 -69 45 -154 56 -190 11 -36 22 -74 25 -84 2 -11 10 -40 18 -65 8 -25
35 -116 60 -201 50 -172 81 -278 286 -975 77 -264 151 -516 165 -560 13 -44
74 -251 135 -460 110 -376 148 -504 195 -660 13 -44 40 -136 60 -205 20 -69
40 -138 46 -155 5 -16 50 -169 100 -340 50 -170 97 -329 104 -352 8 -23 16
-52 19 -65 3 -13 32 -113 64 -223 33 -110 81 -272 107 -360 26 -88 60 -203 75
-255 27 -89 55 -186 181 -612 28 -95 52 -180 54 -188 2 -8 13 -44 24 -80 11
-36 31 -103 45 -150 13 -47 49 -168 79 -270 31 -102 76 -255 100 -340 25 -85
62 -209 82 -275 20 -66 38 -127 40 -135 2 -8 15 -55 30 -105 15 -49 37 -126
50 -170 13 -44 87 -296 165 -560 78 -264 160 -544 183 -623 l42 -142 1884 2
1884 3 14 50 c27 95 445 1520 485 1653 21 72 41 140 43 150 3 9 13 46 24 82
47 159 73 248 130 445 34 116 72 247 87 292 14 45 27 90 29 100 2 10 13 50 25
88 43 141 78 261 83 280 3 11 51 175 107 365 56 190 122 415 147 500 48 168
212 724 243 830 84 284 219 744 225 770 2 8 20 69 40 135 20 66 44 149 54 185
10 36 53 182 96 325 42 143 92 312 110 375 79 272 179 613 212 720 19 63 36
122 38 131 2 9 17 61 34 115 16 55 40 133 51 174 12 41 33 113 47 160 13 47
28 99 33 115 12 42 83 283 175 595 8 25 27 92 44 150 16 58 48 166 70 240 21
74 56 191 76 260 42 144 85 290 120 405 27 92 115 393 120 415 2 8 36 123 75
255 39 132 87 294 106 360 20 66 85 289 146 495 60 206 112 382 113 390 2 8
20 69 40 135 20 66 38 127 40 136 2 9 17 61 34 115 29 94 128 432 136 464 2 8
40 138 84 288 80 270 104 352 106 362 0 3 10 37 22 75 12 39 42 142 68 230 26
88 65 221 87 295 22 74 42 142 43 150 2 8 54 184 115 390 61 206 113 382 115
390 1 8 10 38 18 65 8 28 25 84 37 125 12 41 25 86 30 100 5 14 27 90 50 170
23 80 52 181 66 225 52 175 154 526 165 569 6 26 13 45 15 43 4 -4 102 -326
109 -358 2 -9 17 -61 34 -115 16 -55 37 -124 45 -154 8 -30 42 -147 76 -260
34 -113 63 -212 65 -220 2 -8 45 -154 95 -325 51 -170 114 -384 140 -475 27
-91 73 -248 103 -350 30 -102 57 -194 60 -205 3 -11 15 -51 27 -90 11 -38 23
-79 25 -89 3 -11 13 -47 24 -80 11 -34 40 -131 65 -216 24 -85 65 -225 91
-310 26 -85 48 -162 50 -170 2 -8 13 -46 25 -85 12 -38 23 -77 25 -85 2 -8 78
-269 170 -580 92 -311 170 -574 172 -585 3 -11 73 -247 155 -525 82 -278 151
-512 153 -520 2 -8 35 -123 75 -255 39 -132 73 -247 75 -255 2 -8 78 -269 170
-580 92 -311 178 -605 192 -655 14 -49 27 -97 30 -105 4 -8 7 -19 9 -25 2 -5
19 -64 38 -130 19 -66 40 -136 46 -155 6 -19 13 -42 15 -50 6 -24 223 -765
261 -890 20 -63 37 -123 39 -133 4 -16 44 -152 66 -222 11 -37 69 -233 76
-260 5 -18 163 -557 213 -725 10 -36 38 -128 60 -205 23 -77 45 -153 51 -170
5 -16 31 -106 59 -200 27 -93 86 -294 131 -445 44 -151 83 -284 86 -295 3 -11
32 -110 65 -220 33 -110 63 -209 66 -220 2 -11 63 -218 134 -460 72 -242 133
-453 138 -470 4 -16 76 -262 159 -545 84 -283 163 -551 176 -595 13 -44 44
-152 70 -240 26 -88 65 -218 85 -290 21 -71 98 -330 170 -575 72 -245 137
-465 144 -490 7 -25 28 -98 47 -162 l34 -118 1881 0 c1783 0 1882 1 1889 17 4
10 40 133 81 273 41 140 79 269 84 285 15 44 311 1057 315 1075 2 8 24 83 49
165 24 83 66 222 91 310 26 88 65 221 87 295 22 74 55 187 73 250 60 208 144
494 154 525 5 17 31 102 56 190 26 88 58 196 71 240 13 44 76 258 140 475 128
437 187 640 210 715 8 28 16 57 18 65 4 15 28 96 133 450 30 102 63 214 73
250 10 36 28 97 39 135 12 39 23 77 25 85 4 14 23 80 80 273 14 45 63 213 110
372 46 160 114 391 151 515 37 124 72 245 79 270 7 25 38 131 69 235 30 105
85 291 122 415 36 124 88 299 115 390 27 91 53 181 58 200 6 19 47 159 92 310
44 151 83 282 85 290 2 8 44 152 93 320 50 168 96 325 103 350 16 58 9 36 79
270 67 227 123 414 210 715 32 110 77 263 100 340 23 77 52 176 65 220 28 97
63 216 117 395 22 74 42 144 45 155 3 11 29 101 58 200 156 527 177 601 181
615 1 8 19 69 39 135 20 66 45 149 55 185 9 36 61 214 115 395 165 558 353
1199 400 1358 24 84 56 193 70 242 28 93 54 183 59 200 1 6 12 42 24 80 24 82
233 792 269 915 40 140 172 589 198 675 36 119 246 838 250 855 4 13 146 496
190 645 10 33 19 65 21 70 1 6 13 48 27 95 14 47 60 202 102 345 42 143 80
274 85 290 11 32 64 217 73 250 3 11 31 106 62 210 31 105 67 226 80 270 55
191 118 407 146 500 35 115 29 96 193 655 68 234 136 466 151 515 14 50 28 97
30 105 22 76 38 130 65 220 18 58 33 112 35 120 4 15 76 258 89 297 l7 22
-1880 0 c-1449 0 -1882 -3 -1889 -12 -5 -7 -16 -39 -24 -72 -9 -33 -28 -100
-43 -150 -15 -49 -42 -142 -60 -205 -82 -281 -96 -329 -115 -390 -24 -79 -150
-509 -155 -530 -2 -8 -25 -85 -50 -170 -25 -85 -89 -301 -141 -480 -53 -179
-105 -354 -115 -390 -22 -72 -24 -79 -38 -130 -5 -19 -57 -197 -115 -395 -59
-198 -120 -407 -137 -465 -17 -58 -39 -132 -49 -165 -10 -33 -28 -94 -40 -135
-12 -41 -32 -111 -46 -155 -56 -188 -176 -601 -179 -615 -2 -8 -10 -35 -18
-60 -8 -25 -21 -70 -30 -100 -9 -30 -29 -100 -46 -155 -39 -133 -63 -220 -61
-220 1 0 -3 -13 -9 -28 -6 -16 -32 -99 -57 -185 -25 -86 -73 -249 -106 -362
-33 -113 -69 -234 -80 -270 -11 -36 -22 -74 -25 -85 -6 -22 -65 -223 -268
-915 -75 -256 -138 -472 -140 -480 -2 -8 -49 -168 -105 -355 -56 -187 -108
-365 -116 -395 -13 -48 -73 -252 -149 -505 -13 -44 -30 -105 -39 -135 -8 -30
-38 -131 -66 -225 -28 -93 -54 -179 -57 -190 -3 -11 -39 -135 -80 -275 -41
-140 -86 -293 -99 -340 -13 -47 -30 -105 -38 -130 -8 -25 -24 -76 -35 -115
-11 -38 -38 -132 -61 -208 -22 -76 -63 -215 -91 -310 -28 -95 -73 -248 -100
-342 -74 -251 -100 -338 -106 -360 -15 -52 -144 -494 -152 -520 -6 -16 -31
-102 -56 -190 -26 -88 -56 -189 -67 -225 -10 -36 -21 -72 -23 -80 -13 -51 -86
-293 -89 -299 -3 -4 -7 -18 -9 -32 -3 -13 -62 -217 -132 -454 -70 -236 -132
-446 -137 -465 -5 -19 -45 -154 -88 -300 -182 -617 -372 -1266 -375 -1280 -4
-14 -132 -450 -174 -590 -11 -36 -30 -101 -42 -145 -24 -84 -26 -91 -33 -84
-4 3 -98 318 -111 369 -2 8 -36 123 -75 255 -40 132 -80 272 -91 310 -11 39
-26 90 -34 115 -8 25 -55 182 -104 350 -84 286 -198 673 -313 1065 -28 94 -54
184 -58 200 -5 17 -26 91 -48 165 -151 507 -205 689 -212 715 -5 17 -23 77
-40 135 -17 58 -35 119 -40 135 -4 17 -35 122 -68 235 -151 509 -140 471 -236
800 -13 47 -27 92 -30 100 -8 24 -127 430 -131 448 -2 9 -16 55 -30 102 -14
47 -28 92 -30 100 -2 8 -63 215 -135 460 -73 245 -136 461 -142 480 -6 19 -48
163 -95 320 -46 157 -86 292 -88 300 -2 8 -17 62 -35 120 -18 58 -35 119 -40
135 -4 17 -35 125 -70 240 -152 514 -181 611 -184 626 -4 14 -102 347 -161
544 -13 44 -51 175 -85 290 -33 116 -65 221 -69 235 -5 14 -16 50 -25 80 -8
30 -85 291 -169 580 -85 289 -157 534 -160 545 -3 11 -19 65 -35 120 -38 123
-243 816 -246 830 -3 13 -26 91 -98 330 -64 216 -61 206 -73 250 -4 17 -14 50
-22 75 -8 25 -16 50 -17 55 -9 39 -106 368 -167 570 -5 17 -23 77 -40 135 -17
58 -42 143 -55 190 -14 47 -45 155 -70 240 -25 85 -57 191 -71 235 -13 44 -26
88 -28 97 -2 9 -33 115 -69 235 -35 120 -80 272 -100 338 -74 255 -97 332
-116 395 -10 36 -30 103 -44 150 -14 47 -43 146 -65 220 -22 74 -67 230 -101
345 -34 116 -69 237 -80 270 -10 33 -28 94 -40 135 -12 41 -23 80 -25 87 -3 8
-479 11 -1898 12 l-1895 0 -6 -24 c-4 -14 -7 -28 -7 -32 -1 -5 -5 -19 -10 -32
-5 -13 -34 -107 -64 -210 -48 -168 -134 -459 -185 -631 -22 -74 -52 -180 -56
-195 -2 -5 -48 -163 -104 -350 -56 -187 -103 -347 -105 -355 -2 -8 -45 -154
-95 -325 -50 -170 -93 -317 -95 -325 -2 -8 -19 -67 -38 -130 -19 -63 -37 -124
-40 -135 -2 -11 -24 -83 -47 -160 -42 -142 -84 -287 -145 -495 -18 -63 -40
-137 -49 -165 -14 -47 -226 -767 -301 -1025 -18 -63 -52 -178 -75 -255 -22
-77 -43 -147 -45 -155 -5 -18 -78 -266 -106 -360 -22 -71 -24 -79 -38 -130 -8
-32 -346 -1180 -391 -1330 -30 -100 -171 -583 -176 -600 -2 -8 -24 -85 -49
-170 -26 -85 -48 -162 -50 -170 -4 -14 -70 -240 -119 -405 -14 -44 -39 -129
-56 -190 -17 -60 -36 -121 -40 -135 -8 -22 -32 -103 -145 -495 -13 -44 -55
-188 -95 -320 -39 -132 -73 -247 -75 -255 -1 -8 -38 -132 -80 -275 -43 -143
-81 -273 -85 -290 -4 -16 -60 -208 -124 -425 -65 -217 -137 -465 -162 -550
-25 -85 -59 -200 -75 -255 -48 -161 -64 -216 -144 -490 -42 -143 -87 -296
-100 -340 -40 -134 -225 -763 -260 -885 -18 -63 -74 -252 -123 -420 -49 -168
-92 -314 -95 -325 -3 -11 -14 -49 -25 -85 -11 -36 -40 -135 -65 -220 -47 -160
-75 -253 -125 -425 -16 -55 -32 -109 -35 -120 -3 -11 -31 -105 -62 -210 -31
-104 -67 -226 -79 -270 -13 -44 -49 -165 -80 -270 -31 -104 -58 -197 -60 -205
-19 -70 -70 -238 -77 -250 -7 -13 -8 -13 -9 1 0 9 -11 54 -26 100 -14 46 -34
113 -44 149 -11 36 -40 135 -66 220 -25 85 -50 169 -54 185 -4 17 -20 71 -35
120 -15 50 -37 126 -50 170 -12 44 -57 197 -100 340 -89 299 -134 454 -140
475 -2 8 -17 60 -34 115 -54 183 -133 450 -137 465 -3 14 -56 194 -117 400
-14 47 -60 202 -102 345 -42 143 -90 305 -107 360 -16 55 -32 109 -35 120 -3
11 -18 63 -33 115 -16 52 -44 149 -64 215 -43 149 -290 987 -316 1075 -28 93
-151 510 -220 745 -32 110 -86 295 -120 410 -34 116 -79 269 -100 340 -36 120
-105 357 -200 680 -21 72 -64 216 -95 320 -31 105 -58 197 -60 205 -2 8 -15
53 -30 100 -14 47 -27 92 -29 100 -3 8 -25 85 -51 170 -25 85 -48 163 -50 172
-2 10 -22 78 -43 150 -22 73 -42 142 -45 153 -3 11 -33 112 -66 225 -34 113
-70 234 -80 270 -11 36 -31 103 -45 150 -14 47 -54 184 -90 305 -35 121 -75
254 -87 295 -12 41 -23 80 -25 85 -1 6 -54 186 -117 400 -287 968 -408 1382
-427 1450 -4 17 -33 116 -65 220 -31 105 -83 280 -115 390 -32 110 -97 331
-145 490 -47 160 -88 299 -90 309 -3 11 -11 40 -19 65 -8 25 -16 55 -19 66 -3
11 -33 112 -67 225 -34 113 -64 214 -66 225 -7 27 -10 37 -17 55 -3 8 -7 24
-10 35 -3 11 -42 144 -87 295 -45 151 -84 284 -87 295 -6 24 -54 187 -89 305
-37 123 -51 172 -57 195 -3 11 -39 135 -82 275 -84 280 -79 263 -90 305 -4 17
-16 57 -26 90 -10 33 -30 101 -44 150 -15 50 -33 111 -41 137 l-15 46 -1874 0
c-1031 0 -1875 -1 -1875 -3z m14670 -974 c253 -57 468 -239 600 -506 95 -193
132 -351 134 -579 7 -578 -365 -1069 -834 -1101 -70 -4 -103 -1 -185 19 -55
13 -101 23 -103 21 -2 -2 -30 -90 -63 -197 -33 -106 -69 -222 -80 -258 -12
-36 -23 -72 -25 -80 -3 -13 -185 -601 -284 -920 -25 -82 -154 -498 -225 -730
-13 -41 -62 -201 -110 -355 -48 -154 -88 -284 -89 -290 -2 -5 -6 -17 -9 -25
-3 -8 -15 -49 -27 -90 -12 -41 -25 -86 -30 -100 -20 -58 -110 -351 -116 -375
-1 -5 -46 -149 -99 -320 -53 -170 -121 -391 -152 -490 -30 -99 -65 -214 -78
-255 -20 -64 -153 -498 -271 -880 -19 -63 -48 -155 -64 -205 -15 -49 -44 -144
-64 -210 -20 -66 -43 -138 -50 -160 -8 -22 -28 -87 -46 -145 -54 -178 -111
-364 -120 -390 -12 -35 -73 -233 -76 -246 -2 -9 -19 -67 -129 -419 -62 -197
-165 -531 -180 -585 -7 -25 -81 -263 -163 -530 -83 -267 -198 -640 -257 -830
-58 -190 -114 -372 -125 -405 -10 -33 -66 -215 -125 -405 -58 -190 -123 -397
-143 -460 -20 -63 -37 -119 -38 -125 -1 -5 -31 -104 -67 -220 -126 -404 -159
-511 -193 -625 -19 -63 -39 -126 -44 -140 -8 -25 -26 -82 -139 -450 -33 -107
-64 -206 -69 -220 -5 -14 -9 -27 -9 -30 0 -3 -5 -21 -11 -40 -6 -19 -31 -100
-56 -180 -61 -195 -200 -646 -297 -965 -44 -143 -90 -294 -104 -335 -13 -41
-51 -165 -85 -275 -78 -255 -137 -448 -156 -505 l-15 -45 33 -25 c78 -59 174
-161 229 -244 150 -223 212 -441 205 -721 -3 -82 -7 -163 -10 -180 -44 -220
-94 -348 -191 -495 -173 -259 -414 -401 -680 -401 -649 0 -1083 840 -809 1567
70 187 206 371 357 483 132 97 314 157 448 148 l77 -5 27 87 c14 47 46 149 70
226 25 77 65 208 91 290 25 83 95 310 156 505 60 195 118 382 128 415 19 65
131 423 187 600 19 61 38 124 43 140 4 17 20 68 35 115 15 47 39 128 55 180
16 52 63 205 105 340 43 135 81 259 86 275 4 17 19 66 33 110 89 284 177 567
180 580 2 6 6 17 9 25 4 12 77 247 214 695 8 28 23 75 33 105 10 30 26 82 35
115 10 33 31 101 47 150 16 50 31 97 33 105 2 8 17 58 34 110 16 52 43 140 60
195 35 119 149 485 266 860 78 249 156 500 160 515 2 8 27 89 55 180 29 91 67
215 85 275 42 138 122 397 181 583 25 79 47 151 49 160 2 10 23 76 45 147 23
72 50 157 60 190 10 33 48 157 85 275 37 118 75 242 85 275 17 57 158 513 221
715 17 52 31 100 33 105 2 6 6 17 9 25 3 8 20 62 37 120 34 114 44 148 115
375 25 83 48 157 50 165 3 8 20 65 39 125 70 223 228 731 241 775 7 25 34 113
60 195 25 83 48 157 50 165 2 8 13 42 24 75 11 33 33 105 50 160 16 55 66 217
111 360 45 143 105 339 135 435 29 96 76 247 103 335 28 88 60 192 72 230 44
146 92 301 102 330 14 42 128 413 140 455 5 19 20 67 33 105 12 39 30 93 38
120 66 217 81 267 98 318 10 31 19 62 19 68 0 6 -22 36 -49 67 -103 121 -193
285 -240 437 -22 73 -24 81 -36 155 -4 25 -9 54 -12 65 -5 25 -5 242 1 275 2
14 8 48 12 75 4 28 8 55 10 60 1 6 7 32 13 59 16 68 76 219 113 285 145 257
363 428 607 476 73 14 211 12 281 -4z m13135 1 c363 -76 658 -449 721 -912 15
-108 9 -318 -12 -435 -18 -104 -93 -308 -139 -377 -14 -21 -25 -40 -25 -43 0
-16 -92 -129 -158 -193 -105 -102 -226 -172 -357 -207 -82 -22 -205 -26 -272
-8 -31 8 -59 11 -63 6 -7 -7 -80 -237 -140 -438 -10 -33 -41 -134 -70 -225
-29 -91 -60 -192 -70 -225 -21 -69 -117 -381 -185 -600 -86 -278 -96 -310
-100 -325 -3 -8 -18 -58 -34 -110 -62 -201 -251 -812 -295 -955 -26 -82 -53
-171 -61 -196 -8 -25 -46 -149 -85 -275 -39 -126 -88 -285 -110 -354 -106
-339 -142 -457 -146 -479 -3 -14 -7 -28 -9 -31 -5 -8 -144 -454 -150 -480 -2
-8 -10 -35 -18 -60 -22 -67 -95 -301 -187 -600 -44 -146 -101 -328 -125 -405
-24 -77 -53 -171 -65 -210 -12 -38 -33 -106 -46 -150 -14 -44 -27 -87 -29 -95
-2 -8 -52 -168 -110 -355 -59 -187 -113 -360 -120 -385 -22 -73 -49 -163 -118
-385 -36 -115 -113 -365 -171 -555 -59 -190 -117 -379 -130 -420 -30 -94 -94
-299 -140 -450 -19 -63 -49 -160 -66 -215 -18 -55 -38 -120 -45 -145 -7 -25
-45 -148 -85 -275 -39 -126 -85 -275 -101 -330 -17 -55 -33 -107 -36 -115 -3
-8 -7 -19 -8 -25 -2 -5 -32 -104 -68 -220 -137 -440 -159 -510 -162 -525 -2
-8 -47 -154 -100 -325 -259 -831 -296 -951 -300 -965 -2 -8 -45 -148 -95 -310
-50 -162 -109 -351 -130 -420 -21 -69 -53 -170 -70 -225 -17 -55 -33 -109 -35
-120 -3 -11 -9 -31 -15 -45 -5 -14 -36 -113 -69 -220 -74 -242 -201 -654 -319
-1033 l-89 -288 68 -66 c166 -160 278 -389 316 -648 10 -62 9 -307 0 -357 -4
-21 -10 -55 -13 -75 -13 -79 -57 -212 -101 -303 -164 -340 -446 -541 -758
-541 -302 -1 -573 183 -738 500 -104 200 -143 376 -141 636 4 511 315 962 726
1052 72 16 277 7 309 -13 12 -7 16 3 78 208 33 106 74 238 91 293 48 153 120
387 130 420 4 17 31 104 60 195 29 91 58 185 65 210 7 25 43 142 80 260 37
118 83 266 101 329 19 62 37 117 40 122 3 5 7 17 9 28 2 10 15 56 30 102 29
90 248 801 321 1039 55 180 139 450 159 510 26 81 107 344 125 405 10 33 50
164 90 290 40 127 75 244 80 260 4 17 24 82 44 145 20 63 43 135 51 160 76
249 335 1088 390 1260 18 58 47 152 65 210 17 58 36 119 41 135 5 17 9 35 10
40 1 6 6 21 11 35 9 24 96 300 116 370 6 19 27 87 47 150 20 63 38 122 40 130
5 17 37 121 115 370 29 91 58 185 65 210 17 56 45 148 80 260 15 47 35 112 45
145 10 33 55 177 99 320 45 143 83 267 85 275 2 9 25 83 51 165 93 296 103
331 135 435 17 58 44 146 60 195 31 96 160 513 164 530 1 6 19 62 39 125 20
63 57 183 82 265 26 83 62 200 81 260 19 61 37 119 39 130 3 11 16 56 31 100
30 92 73 233 79 255 2 8 34 110 70 225 36 116 68 217 70 225 2 8 17 58 34 110
16 52 96 309 176 570 80 261 150 486 155 500 5 14 25 77 44 140 19 63 58 189
86 280 29 91 67 215 85 275 19 61 88 285 154 498 l120 388 -36 32 c-170 148
-314 407 -349 627 -3 19 -10 55 -14 80 -5 25 -8 95 -8 155 0 101 3 135 23 265
11 75 72 251 116 335 84 164 205 303 334 385 171 110 374 150 560 112z"/>
<path d="M14405 23941 c-88 -24 -167 -74 -230 -144 -58 -64 -117 -158 -136
-218 -6 -19 -14 -43 -19 -54 -38 -90 -45 -310 -15 -436 117 -488 604 -637 903
-275 60 73 116 192 136 291 4 17 9 41 12 55 6 33 6 188 -2 236 -40 273 -219
497 -439 550 -57 13 -150 11 -210 -5z"/>
<path d="M9300 7414 c-181 -38 -329 -175 -405 -378 -14 -36 -22 -66 -20 -66 3
0 1 -8 -4 -18 -9 -16 -23 -124 -24 -182 -3 -107 31 -267 74 -358 79 -166 225
-296 369 -327 145 -32 308 23 430 144 221 221 272 613 115 896 -93 167 -240
275 -400 291 -27 3 -54 7 -60 8 -5 2 -39 -3 -75 -10z"/>
<path d="M27570 23948 c-136 -24 -294 -157 -369 -308 -23 -47 -43 -94 -45
-105 -2 -11 -9 -32 -14 -46 -38 -98 -35 -292 8 -449 39 -145 175 -317 300
-378 89 -43 212 -60 300 -41 190 41 357 218 416 441 21 83 23 95 24 213 5 421
-284 735 -620 673z"/>
<path d="M22454 7419 c-382 -51 -597 -529 -432 -960 61 -161 170 -285 299
-342 71 -32 111 -40 190 -39 219 3 427 191 502 452 80 279 8 575 -185 756 -65
62 -183 121 -258 130 -30 3 -57 7 -60 8 -3 1 -28 -1 -56 -5z"/>
</g>
</svg>
