<svg width="127" height="29" viewBox="0 0 127 29" fill="none" xmlns="http://www.w3.org/2000/svg">
<path d="M121.751 22.9831C122.095 22.4507 122.292 21.8667 122.344 21.2312C122.395 20.5957 122.421 19.9688 122.421 19.3505C121.923 19.986 121.313 20.4326 120.592 20.6902C119.87 20.9478 119.089 21.0766 118.247 21.0766C117.268 21.0766 116.418 20.9306 115.697 20.6387C114.993 20.3467 114.434 19.9001 114.022 19.299C113.61 18.7494 113.327 18.1053 113.172 17.3668C113.017 16.6111 112.94 15.7952 112.94 14.9193V7.29346H116.573V14.4813C116.573 14.9451 116.607 15.4002 116.676 15.8468C116.762 16.2761 116.933 16.6368 117.191 16.9288C117.603 17.5471 118.35 17.8563 119.432 17.8563C119.948 17.8563 120.429 17.7532 120.875 17.5471C121.322 17.3238 121.674 16.9803 121.931 16.5166C122.155 16.1216 122.292 15.7094 122.344 15.28C122.395 14.8334 122.421 14.3525 122.421 13.8372V7.29346H126.079V18.4488C126.079 19.0671 126.071 19.7026 126.054 20.3553C126.054 20.9908 126.002 21.6177 125.899 22.236C125.813 22.8543 125.65 23.4554 125.409 24.0394C125.169 24.6233 124.834 25.1644 124.405 25.6624C123.804 26.3494 123.014 26.8991 122.035 27.3113C121.073 27.7235 119.913 27.921 118.557 27.9038C117.56 27.921 116.573 27.7836 115.594 27.4916C114.615 27.2168 113.713 26.8132 112.889 26.2807L114.048 23.1892C114.495 23.5155 115.087 23.8161 115.826 24.0909C116.581 24.3657 117.466 24.5031 118.479 24.5031C119.304 24.5031 119.973 24.3657 120.489 24.0909C121.021 23.8333 121.442 23.464 121.751 22.9831Z" fill="#D9D7E6"/>
<path d="M104.996 17.8565C105.683 17.8565 106.224 17.6933 106.619 17.367C107.031 17.0406 107.28 16.6714 107.366 16.2592H111.179C111.059 17.1351 110.81 17.8736 110.432 18.4748C110.054 19.0759 109.582 19.574 109.015 19.969C108.465 20.364 107.838 20.6474 107.134 20.8192C106.43 20.9909 105.7 21.0768 104.944 21.0768C103.811 21.0768 102.823 20.9222 101.982 20.6131C101.157 20.2868 100.47 19.823 99.9207 19.2219C99.3711 18.6036 98.9503 17.865 98.6583 17.0063C98.3835 16.1303 98.2461 15.1513 98.2461 14.0693C98.2461 13.0216 98.4007 12.0598 98.7098 11.1839C99.019 10.3079 99.457 9.56079 100.024 8.94248C100.608 8.32416 101.32 7.85184 102.162 7.52551C103.004 7.18201 103.965 7.01025 105.048 7.01025C105.838 7.01025 106.576 7.10472 107.263 7.29365C107.967 7.48258 108.586 7.77456 109.118 8.16959C109.668 8.56462 110.114 9.07129 110.458 9.6896C110.818 10.2907 111.059 11.0121 111.179 11.8537H107.366C107.28 11.4415 107.023 11.0722 106.593 10.7459C106.181 10.4196 105.64 10.2564 104.97 10.2564C104.403 10.2564 103.914 10.3594 103.502 10.5655C103.09 10.7716 102.763 11.055 102.523 11.4157C102.282 11.7764 102.111 12.1886 102.007 12.6523C101.904 13.1161 101.853 13.6056 101.853 14.1208C101.853 14.6704 101.913 15.1771 102.033 15.6408C102.153 16.0874 102.334 16.4824 102.574 16.8259C102.815 17.1523 103.132 17.4099 103.527 17.5988C103.94 17.7706 104.429 17.8565 104.996 17.8565Z" fill="#D9D7E6"/>
<path d="M87.1857 9.01966C88.2849 7.69716 89.6417 7.02732 91.2562 7.01014C92.1322 6.99297 92.9051 7.13896 93.5749 7.44812C94.2447 7.7401 94.7857 8.14372 95.198 8.65897C95.696 9.26011 96.0395 9.9643 96.2285 10.7715C96.4174 11.5616 96.5119 12.4461 96.5119 13.4251V20.8706H92.8535V13.7085C92.8535 13.2276 92.802 12.7725 92.699 12.3431C92.6131 11.8965 92.4585 11.5187 92.2352 11.2095C92.0119 10.8832 91.7114 10.6427 91.3335 10.4881C90.9728 10.3336 90.5606 10.2563 90.0969 10.2563C89.5129 10.2735 89.0148 10.4023 88.6026 10.6427C88.2076 10.8832 87.907 11.1923 87.7009 11.5702C87.4948 11.9309 87.3488 12.3431 87.263 12.8068C87.1943 13.2534 87.1599 13.7085 87.1599 14.1722V20.8706H83.5273V7.29354H87.0053L87.1857 9.01966Z" fill="#D9D7E6"/>
<path d="M75.3569 18.1141C75.8722 18.1141 76.3102 18.0368 76.6709 17.8822C77.0487 17.7105 77.3579 17.4357 77.5983 17.0578H81.4112C81.2223 17.762 80.9303 18.3717 80.5353 18.887C80.1574 19.4022 79.6937 19.823 79.1441 20.1494C78.6117 20.4757 78.0191 20.7161 77.3665 20.8707C76.7138 21.0081 76.0268 21.0768 75.3054 21.0768C73.107 21.0768 71.441 20.4585 70.3074 19.2219C69.191 17.9853 68.6328 16.2506 68.6328 14.0178C68.6328 13.0044 68.7788 12.0684 69.0708 11.2096C69.3799 10.3508 69.8093 9.61231 70.3589 8.994C70.9085 8.35852 71.587 7.86902 72.3942 7.52551C73.2186 7.18201 74.1547 7.01025 75.2024 7.01025C76.4218 7.01025 77.4781 7.22495 78.3712 7.65433C79.2643 8.08371 79.9685 8.67626 80.4838 9.43197C81.0162 10.1705 81.3683 11.0379 81.54 12.034C81.729 13.0302 81.729 14.0951 81.54 15.2286H72.2654C72.3341 16.0359 72.6175 16.7229 73.1156 17.2897C73.6137 17.8393 74.3608 18.1141 75.3569 18.1141ZM78.1651 12.7296C78.1651 12.3002 78.0878 11.9224 77.9332 11.5961C77.7787 11.2526 77.5726 10.9777 77.3149 10.7716C77.0573 10.5484 76.7481 10.3852 76.3875 10.2821C76.044 10.1791 75.6833 10.1276 75.3054 10.1276C74.3951 10.1447 73.6824 10.3938 73.1671 10.8747C72.669 11.3384 72.377 11.9567 72.2912 12.7296H78.1651Z" fill="#D9D7E6"/>
<path d="M63.1545 19.4795C62.6392 20.0634 62.0209 20.4756 61.2995 20.7161C60.5782 20.9565 59.7967 21.0768 58.9551 21.0768C58.1135 21.0768 57.2891 20.948 56.4819 20.6903C55.6918 20.4155 55.0048 19.9775 54.4208 19.3764C53.7682 18.6894 53.313 17.8993 53.0554 17.0062C52.7978 16.1131 52.6689 15.1942 52.6689 14.2496C52.6689 12.0168 53.2873 10.2306 54.5239 8.89089C55.0563 8.30693 55.7433 7.85179 56.5849 7.52546C57.4437 7.19913 58.3626 7.04455 59.3415 7.06173C59.977 7.02737 60.664 7.13901 61.4026 7.39664C62.1411 7.65427 62.7766 8.08366 63.309 8.68479L63.6955 7.29359H66.8386V20.0205C66.8386 20.5701 66.8042 21.1111 66.7355 21.6436C66.684 22.1932 66.5895 22.717 66.4521 23.2151C66.3147 23.7304 66.1086 24.2198 65.8338 24.6836C65.5247 25.2504 65.1468 25.7313 64.7002 26.1263C64.2709 26.5213 63.7899 26.8477 63.2575 27.1053C62.7251 27.3801 62.1583 27.5776 61.5572 27.6978C60.956 27.8181 60.3463 27.8782 59.728 27.8782C58.9379 27.8782 58.1822 27.7837 57.4609 27.5948C56.7395 27.423 56.0782 27.1311 55.4771 26.7189C54.8931 26.3238 54.4036 25.8171 54.0086 25.1988C53.6308 24.5805 53.3817 23.842 53.2615 22.9832H57.1259C57.1946 23.3954 57.4694 23.7647 57.9503 24.091C58.4313 24.4174 59.0152 24.5805 59.7022 24.5805C60.4408 24.5805 61.0419 24.4345 61.5056 24.1426C61.9865 23.8506 62.3472 23.4641 62.5877 22.9832C62.8281 22.5023 62.9827 21.9527 63.0514 21.3344C63.1201 20.7161 63.1545 20.0978 63.1545 19.4795ZM59.7795 17.8564C60.3463 17.8564 60.8444 17.7533 61.2738 17.5472C61.7203 17.3411 62.081 17.0663 62.3558 16.7228C62.6306 16.3621 62.8367 15.9499 62.9741 15.4862C63.1115 15.0053 63.1802 14.4986 63.1802 13.9662C63.1802 12.9013 62.8797 12.0254 62.2785 11.3384C61.6946 10.6342 60.853 10.2735 59.7538 10.2563C59.187 10.2563 58.6803 10.3594 58.2337 10.5655C57.8044 10.7716 57.4437 11.0464 57.1517 11.3899C56.8769 11.7334 56.6708 12.137 56.5334 12.6008C56.396 13.0645 56.3273 13.5626 56.3273 14.095C56.3273 14.6618 56.396 15.1771 56.5334 15.6408C56.688 16.0873 56.9112 16.4824 57.2032 16.8259C57.4952 17.1522 57.8559 17.4098 58.2853 17.5988C58.7146 17.7705 59.2127 17.8564 59.7795 17.8564Z" fill="#D9D7E6"/>
<path d="M47.4838 19.1961C46.9686 19.8831 46.3417 20.3726 45.6031 20.6646C44.8646 20.9566 44.0058 21.094 43.0268 21.0768C41.773 21.0425 40.7253 20.6904 39.8838 20.0205C39.4372 19.6427 39.0851 19.1961 38.8275 18.6809C38.587 18.1484 38.4668 17.5215 38.4668 16.8002C38.484 16.0616 38.6471 15.409 38.9563 14.8422C39.2826 14.2582 39.7721 13.7773 40.4248 13.3995C40.9744 13.1075 41.5927 12.9014 42.2797 12.7812C42.9839 12.6609 43.7482 12.6008 44.5726 12.6008H47.355C47.4065 11.7592 47.209 11.1323 46.7625 10.7201C46.3331 10.2907 45.7234 10.0675 44.9333 10.0503C44.6757 10.0503 44.4094 10.0675 44.1346 10.1018C43.8598 10.1362 43.6022 10.2049 43.3618 10.3079C43.1385 10.411 42.941 10.557 42.7692 10.7459C42.6146 10.9176 42.5116 11.1323 42.4601 11.39H38.7244C38.8103 10.5655 39.0336 9.87853 39.3943 9.32892C39.7721 8.76213 40.2444 8.30699 40.8112 7.96348C41.378 7.61998 42.0049 7.37952 42.6919 7.24212C43.3961 7.08754 44.1175 7.01025 44.856 7.01025C45.2682 7.01025 45.689 7.03602 46.1184 7.08754C46.5478 7.12189 46.9686 7.20777 47.3808 7.34517C47.793 7.4654 48.1794 7.63715 48.5401 7.86043C48.918 8.06654 49.2701 8.34134 49.5964 8.68485C50.1803 9.35468 50.541 10.1276 50.6784 11.0035C50.833 11.8623 50.9017 12.7039 50.8845 13.5283V20.8707H47.5611L47.4838 19.1961ZM47.355 14.868H44.7014C44.4438 14.868 44.1518 14.8937 43.8255 14.9452C43.4992 14.9968 43.2158 15.0912 42.9753 15.2286C42.7349 15.366 42.5288 15.5464 42.357 15.7697C42.2024 15.9929 42.1251 16.2677 42.1251 16.5941C42.1251 16.8689 42.1767 17.1093 42.2797 17.3154C42.3999 17.5215 42.5459 17.6933 42.7177 17.8307C42.9066 17.9681 43.1299 18.0797 43.3875 18.1656C43.6451 18.2343 43.9028 18.2687 44.1604 18.2687C44.6585 18.2858 45.1222 18.2 45.5516 18.011C45.9982 17.8221 46.3846 17.5559 46.7109 17.2124C46.917 16.9376 47.0716 16.6284 47.1747 16.2849C47.2949 15.9242 47.355 15.4519 47.355 14.868Z" fill="#D9D7E6"/>
<path fill-rule="evenodd" clip-rule="evenodd" d="M28.6021 15.1306C28.4566 17.6741 27.6342 20.1381 26.2134 22.2645C24.6407 24.6183 22.4053 26.4528 19.79 27.5361C17.1747 28.6194 14.2969 28.9028 11.5205 28.3505C8.74407 27.7983 6.19379 26.4351 4.19211 24.4334C2.19044 22.4318 0.827282 19.8815 0.275022 17.1051C-0.277239 14.3287 0.00620148 11.4509 1.0895 8.83555C2.1728 6.22024 4.0073 3.98489 6.36102 2.41219C8.48748 0.99133 10.9515 0.168987 13.4949 0.0234375V7.20331C12.369 7.33283 11.2857 7.7285 10.3369 8.3625C9.16002 9.14885 8.24277 10.2665 7.70113 11.5742C7.15948 12.8818 7.01776 14.3207 7.29389 15.7089C7.57002 17.0971 8.2516 18.3723 9.25243 19.3731C10.2533 20.374 11.5284 21.0555 12.9166 21.3317C14.3048 21.6078 15.7437 21.4661 17.0514 20.9244C18.359 20.3828 19.4767 19.4655 20.2631 18.2887C20.8971 17.3398 21.2927 16.2566 21.4222 15.1306H28.6021Z" fill="#D9D7E6"/>
<path fill-rule="evenodd" clip-rule="evenodd" d="M21.4656 0H15.6104V7.15636H21.4656L21.4656 13.0113H28.622L28.622 1.30913C28.622 1.30647 28.622 1.30381 28.622 1.30115V0H27.3129H21.4656Z" fill="#D9D7E6"/>
</svg>
