<svg width="178" height="40" viewBox="0 0 178 40" fill="none" xmlns="http://www.w3.org/2000/svg">
<path d="M165.807 15.0646H168.996L169.12 16.7339C169.536 16.1027 170.051 15.621 170.665 15.2888C171.296 14.94 171.994 14.7656 172.758 14.7656C175.864 14.7656 177.409 16.6675 177.392 20.4712V21.1439H177.417V27.5222H174.054V21.1439H174.029C174.029 19.948 173.821 19.1175 173.406 18.6524C173.007 18.1707 172.426 17.9299 171.662 17.9299C170.848 17.9299 170.225 18.1956 169.793 18.7271C169.378 19.2421 169.17 19.9895 169.17 20.9695V27.5222H165.807V15.0646Z" fill="#D9D7E6"/>
<path d="M157.185 27.8212C155.922 27.8212 154.793 27.5471 153.796 26.999C152.799 26.4343 152.019 25.6619 151.454 24.6819C150.906 23.6853 150.632 22.5558 150.632 21.2934C150.632 20.031 150.906 18.9099 151.454 17.9299C152.019 16.9333 152.791 16.1609 153.771 15.6127C154.751 15.048 155.872 14.7656 157.135 14.7656C158.397 14.7656 159.518 15.048 160.498 15.6127C161.495 16.1609 162.267 16.9333 162.815 17.9299C163.38 18.9099 163.663 20.031 163.663 21.2934C163.663 22.5558 163.388 23.6853 162.84 24.6819C162.292 25.6619 161.52 26.4343 160.523 26.999C159.543 27.5471 158.43 27.8212 157.185 27.8212ZM154.095 21.2934C154.095 22.3066 154.377 23.1371 154.942 23.7849C155.524 24.4161 156.271 24.7317 157.185 24.7317C158.081 24.7317 158.812 24.4161 159.377 23.7849C159.942 23.1371 160.224 22.3066 160.224 21.2934C160.224 20.2802 159.934 19.458 159.352 18.8268C158.787 18.179 158.048 17.8551 157.135 17.8551C156.254 17.8551 155.524 18.179 154.942 18.8268C154.377 19.458 154.095 20.2802 154.095 21.2934Z" fill="#D9D7E6"/>
<path d="M144.935 15.0645H148.298V27.5222H144.935V15.0645ZM146.629 13.0962C146.097 13.0962 145.641 12.9052 145.259 12.5232C144.877 12.1412 144.686 11.6927 144.686 11.1778C144.686 10.6462 144.877 10.1895 145.259 9.80743C145.657 9.42539 146.114 9.23438 146.629 9.23438C147.144 9.23438 147.592 9.42539 147.974 9.80743C148.356 10.1895 148.547 10.6462 148.547 11.1778C148.547 11.6927 148.356 12.1412 147.974 12.5232C147.609 12.9052 147.16 13.0962 146.629 13.0962Z" fill="#D9D7E6"/>
<path d="M139.844 27.8211C138.465 27.8211 137.411 27.4806 136.68 26.7996C135.966 26.1186 135.608 25.1386 135.608 23.8596V17.9048H133.615V15.0645H135.608V11.1777H138.972V15.0645H142.062V17.9048H138.972V23.1121C138.972 23.6603 139.08 24.0672 139.296 24.333C139.528 24.5821 139.877 24.7067 140.342 24.7067C140.675 24.7067 141.048 24.5572 141.464 24.2582L142.659 26.7747C142.244 27.0903 141.787 27.3394 141.289 27.5221C140.791 27.7215 140.309 27.8211 139.844 27.8211Z" fill="#D9D7E6"/>
<path d="M128.827 26.1021C128.129 27.2482 126.983 27.8212 125.389 27.8212C123.894 27.8212 122.731 27.489 121.901 26.8246C121.087 26.1602 120.68 25.2217 120.68 24.0092C120.68 22.697 121.12 21.7004 122 21.0193C122.881 20.3383 124.126 19.9978 125.737 19.9978H128.702C128.47 18.4531 127.714 17.6807 126.435 17.6807C125.339 17.6807 124.508 18.1458 123.944 19.076L120.979 18.0544C121.377 17.1243 122.025 16.3436 122.922 15.7124C123.836 15.0812 125.007 14.7656 126.435 14.7656C128.295 14.7656 129.707 15.2888 130.671 16.3353C131.634 17.3651 132.099 18.7936 132.066 20.6207L132.016 27.5222H128.877L128.827 26.1021ZM124.118 23.9095C124.118 24.2583 124.284 24.5407 124.616 24.7566C124.948 24.956 125.405 25.0556 125.987 25.0556C126.502 25.0556 126.967 24.931 127.382 24.6819C127.814 24.4327 128.154 24.1088 128.403 23.7102C128.653 23.3116 128.777 22.8963 128.777 22.4644H126.933C125.92 22.4644 125.198 22.589 124.766 22.8382C124.334 23.0707 124.118 23.4278 124.118 23.9095Z" fill="#D9D7E6"/>
<path d="M113.781 27.8212C112.486 27.8212 111.331 27.5471 110.318 26.999C109.305 26.4343 108.508 25.6619 107.926 24.6819C107.361 23.6853 107.079 22.5558 107.079 21.2934C107.079 20.031 107.361 18.9099 107.926 17.9299C108.491 16.9333 109.28 16.1609 110.293 15.6127C111.306 15.048 112.452 14.7656 113.731 14.7656C115.01 14.7656 116.157 15.0812 117.17 15.7124C118.2 16.3436 118.947 17.2322 119.412 18.3783L116.248 19.4995C116.015 19.0178 115.658 18.6358 115.177 18.3534C114.695 18.071 114.163 17.9299 113.582 17.9299C112.685 17.9299 111.954 18.2455 111.389 18.8766C110.825 19.4912 110.542 20.2968 110.542 21.2934C110.542 22.2734 110.825 23.079 111.389 23.7102C111.971 24.3414 112.718 24.657 113.632 24.657C114.213 24.657 114.745 24.5075 115.226 24.2085C115.708 23.8929 116.065 23.4777 116.298 22.9627L119.487 24.0839C119.005 25.2632 118.258 26.1851 117.245 26.8495C116.231 27.4973 115.077 27.8212 113.781 27.8212Z" fill="#D9D7E6"/>
<path d="M101.382 15.0645H104.746V27.5222H101.382V15.0645ZM103.076 13.0962C102.545 13.0962 102.088 12.9052 101.706 12.5232C101.324 12.1412 101.133 11.6927 101.133 11.1778C101.133 10.6462 101.324 10.1895 101.706 9.80743C102.105 9.42539 102.561 9.23438 103.076 9.23438C103.591 9.23438 104.04 9.42539 104.422 9.80743C104.804 10.1895 104.995 10.6462 104.995 11.1778C104.995 11.6927 104.804 12.1412 104.422 12.5232C104.056 12.9052 103.608 13.0962 103.076 13.0962Z" fill="#D9D7E6"/>
<path d="M95.002 9.58301H98.3655V27.522H95.002V9.58301Z" fill="#D9D7E6"/>
<path d="M80.1631 15.0646H83.3522L83.4768 16.7838C83.8921 16.136 84.4153 15.6377 85.0465 15.2888C85.6943 14.94 86.4334 14.7656 87.2639 14.7656C88.3934 14.7656 89.3817 15.0314 90.2288 15.5629C91.0926 16.0944 91.7487 16.8502 92.1971 17.8302C92.6622 18.8102 92.8948 19.9646 92.8948 21.2934C92.8948 22.6056 92.6622 23.76 92.1971 24.7566C91.7487 25.7366 91.0926 26.4924 90.2288 27.0239C89.3817 27.5554 88.3934 27.8212 87.2639 27.8212C86.45 27.8212 85.7275 27.6551 85.0963 27.3229C84.4651 26.9741 83.9419 26.4841 83.5266 25.8529V32.5053H80.1631V15.0646ZM83.5266 21.2934C83.5266 22.3066 83.7924 23.1371 84.3239 23.7849C84.8721 24.4161 85.5697 24.7317 86.4168 24.7317C87.2805 24.7317 87.9948 24.4078 88.5595 23.76C89.1243 23.1122 89.4066 22.29 89.4066 21.2934C89.4066 20.2968 89.1243 19.4829 88.5595 18.8517C88.0114 18.2039 87.3055 17.88 86.4417 17.88C85.578 17.88 84.8721 18.1956 84.3239 18.8268C83.7924 19.458 83.5266 20.2802 83.5266 21.2934Z" fill="#D9D7E6"/>
<path d="M65.1992 15.0646H68.3884L68.5129 16.7838C68.9282 16.136 69.4514 15.6377 70.0826 15.2888C70.7304 14.94 71.4696 14.7656 72.3001 14.7656C73.4296 14.7656 74.4179 15.0314 75.265 15.5629C76.1287 16.0944 76.7848 16.8502 77.2333 17.8302C77.6984 18.8102 77.9309 19.9646 77.9309 21.2934C77.9309 22.6056 77.6984 23.76 77.2333 24.7566C76.7848 25.7366 76.1287 26.4924 75.265 27.0239C74.4179 27.5554 73.4296 27.8212 72.3001 27.8212C71.4862 27.8212 70.7636 27.6551 70.1324 27.3229C69.5012 26.9741 68.978 26.4841 68.5628 25.8529V32.5053H65.1992V15.0646ZM68.5628 21.2934C68.5628 22.3066 68.8285 23.1371 69.3601 23.7849C69.9082 24.4161 70.6058 24.7317 71.4529 24.7317C72.3167 24.7317 73.0309 24.4078 73.5957 23.76C74.1604 23.1122 74.4428 22.29 74.4428 21.2934C74.4428 20.2968 74.1604 19.4829 73.5957 18.8517C73.0475 18.2039 72.3416 17.88 71.4779 17.88C70.6141 17.88 69.9082 18.1956 69.3601 18.8268C68.8285 19.458 68.5628 20.2802 68.5628 21.2934Z" fill="#D9D7E6"/>
<path d="M59.2401 26.1021C58.5424 27.2482 57.3963 27.8212 55.8018 27.8212C54.3068 27.8212 53.1441 27.489 52.3136 26.8246C51.4997 26.1602 51.0928 25.2217 51.0928 24.0092C51.0928 22.697 51.5329 21.7004 52.4133 21.0193C53.2936 20.3383 54.5394 19.9978 56.1506 19.9978H59.1155C58.8829 18.4531 58.1272 17.6807 56.8482 17.6807C55.7519 17.6807 54.9214 18.1458 54.3567 19.076L51.3918 18.0544C51.7904 17.1243 52.4382 16.3436 53.3351 15.7124C54.2487 15.0812 55.4197 14.7656 56.8482 14.7656C58.7085 14.7656 60.1204 15.2888 61.0838 16.3353C62.0472 17.3651 62.5123 18.7936 62.479 20.6207L62.4292 27.5222H59.2899L59.2401 26.1021ZM54.5311 23.9095C54.5311 24.2583 54.6972 24.5407 55.0294 24.7566C55.3616 24.956 55.8184 25.0556 56.3997 25.0556C56.9146 25.0556 57.3797 24.931 57.795 24.6819C58.2268 24.4327 58.5673 24.1088 58.8165 23.7102C59.0657 23.3116 59.1902 22.8963 59.1902 22.4644H57.3465C56.3333 22.4644 55.6107 22.589 55.1789 22.8382C54.747 23.0707 54.5311 23.4278 54.5311 23.9095Z" fill="#D9D7E6"/>
<path fill-rule="evenodd" clip-rule="evenodd" d="M17.2892 31.9009V24.4503L17.2892 31.901H28.7241C35.7071 31.901 41.3679 26.2401 41.3679 19.2571C41.3679 12.9418 36.2483 7.82227 29.933 7.82227H29.3286C26.6085 7.82227 24.0991 8.72433 22.0832 10.2456C20.5796 8.74799 18.506 7.82227 16.2161 7.82227H15.9504C11.6935 7.82227 8.20856 11.1271 7.92122 15.311C3.84619 15.7071 0.661133 19.1421 0.661133 23.3212C0.661133 28.0596 4.50243 31.9009 9.24091 31.9009H17.2892Z" fill="#D9D7E6"/>
</svg>
