<svg width="249" height="54" viewBox="0 0 249 54" fill="none" xmlns="http://www.w3.org/2000/svg">
<path d="M232.11 19.6537H236.567L236.741 21.9864C237.321 21.1044 238.041 20.4313 238.899 19.9671C239.781 19.4797 240.756 19.236 241.824 19.236C246.164 19.236 248.323 21.8935 248.3 27.2087V28.1487H248.334V37.0615H243.634V28.1487H243.599C243.599 26.4776 243.309 25.3171 242.729 24.6672C242.172 23.9941 241.36 23.6575 240.292 23.6575C239.155 23.6575 238.284 24.0289 237.681 24.7716C237.101 25.4911 236.81 26.5356 236.81 27.905V37.0615H232.11V19.6537Z" fill="#88849C"/>
<path d="M220.063 37.4793C218.299 37.4793 216.72 37.0963 215.328 36.3304C213.935 35.5412 212.844 34.4619 212.055 33.0925C211.289 31.6999 210.906 30.1216 210.906 28.3576C210.906 26.5936 211.289 25.0269 212.055 23.6575C212.844 22.2649 213.924 21.1856 215.293 20.4197C216.662 19.6305 218.229 19.236 219.993 19.236C221.757 19.236 223.324 19.6305 224.693 20.4197C226.086 21.1856 227.165 22.2649 227.931 23.6575C228.72 25.0269 229.115 26.5936 229.115 28.3576C229.115 30.1216 228.732 31.6999 227.966 33.0925C227.2 34.4619 226.121 35.5412 224.728 36.3304C223.359 37.0963 221.803 37.4793 220.063 37.4793ZM215.746 28.3576C215.746 29.7734 216.14 30.934 216.929 31.8392C217.742 32.7211 218.786 33.1621 220.063 33.1621C221.316 33.1621 222.337 32.7211 223.126 31.8392C223.916 30.934 224.31 29.7734 224.31 28.3576C224.31 26.9418 223.904 25.7929 223.092 24.9109C222.303 24.0057 221.27 23.5531 219.993 23.5531C218.763 23.5531 217.742 24.0057 216.929 24.9109C216.14 25.7929 215.746 26.9418 215.746 28.3576Z" fill="#88849C"/>
<path d="M202.945 19.6538H207.645V37.0616H202.945V19.6538ZM205.312 16.9034C204.57 16.9034 203.931 16.6365 203.397 16.1027C202.864 15.5688 202.597 14.9421 202.597 14.2226C202.597 13.4799 202.864 12.8416 203.397 12.3078C203.954 11.7739 204.593 11.507 205.312 11.507C206.032 11.507 206.658 11.7739 207.192 12.3078C207.726 12.8416 207.993 13.4799 207.993 14.2226C207.993 14.9421 207.726 15.5688 207.192 16.1027C206.682 16.6365 206.055 16.9034 205.312 16.9034Z" fill="#88849C"/>
<path d="M195.832 37.4793C193.905 37.4793 192.431 37.0035 191.41 36.0519C190.412 35.1003 189.913 33.7309 189.913 31.9437V23.6228H187.128V19.6538H189.913V14.2226H194.613V19.6538H198.93V23.6228H194.613V30.8992C194.613 31.6651 194.764 32.2338 195.066 32.6052C195.391 32.9533 195.878 33.1274 196.528 33.1274C196.992 33.1274 197.515 32.9185 198.095 32.5007L199.766 36.0171C199.186 36.4581 198.547 36.8062 197.851 37.0615C197.155 37.3401 196.482 37.4793 195.832 37.4793Z" fill="#88849C"/>
<path d="M180.437 35.077C179.463 36.6785 177.861 37.4793 175.633 37.4793C173.544 37.4793 171.919 37.0151 170.759 36.0866C169.621 35.1582 169.053 33.8469 169.053 32.1525C169.053 30.3189 169.668 28.9263 170.898 27.9746C172.128 27.023 173.869 26.5472 176.12 26.5472H180.263C179.938 24.3886 178.882 23.3094 177.095 23.3094C175.563 23.3094 174.403 23.9593 173.614 25.259L169.471 23.8316C170.028 22.5318 170.933 21.4409 172.186 20.5589C173.463 19.677 175.099 19.236 177.095 19.236C179.695 19.236 181.668 19.9671 183.014 21.4293C184.36 22.8684 185.01 24.8645 184.963 27.4176L184.894 37.0615H180.507L180.437 35.077ZM173.857 32.0132C173.857 32.5007 174.089 32.8952 174.554 33.197C175.018 33.4755 175.656 33.6147 176.468 33.6147C177.188 33.6147 177.838 33.4407 178.418 33.0925C179.022 32.7444 179.497 32.2918 179.846 31.7347C180.194 31.1777 180.368 30.5974 180.368 29.9939H177.791C176.376 29.9939 175.366 30.168 174.762 30.5162C174.159 30.8411 173.857 31.3401 173.857 32.0132Z" fill="#88849C"/>
<path d="M159.412 37.4793C157.602 37.4793 155.989 37.0963 154.573 36.3304C153.157 35.5412 152.043 34.4619 151.231 33.0925C150.441 31.6999 150.047 30.1216 150.047 28.3576C150.047 26.5936 150.441 25.0269 151.231 23.6575C152.02 22.2649 153.122 21.1856 154.538 20.4197C155.954 19.6305 157.555 19.236 159.343 19.236C161.13 19.236 162.731 19.677 164.147 20.5589C165.586 21.4409 166.631 22.6827 167.281 24.2842L162.859 25.8509C162.534 25.1778 162.035 24.644 161.362 24.2494C160.689 23.8548 159.946 23.6575 159.134 23.6575C157.88 23.6575 156.859 24.0985 156.07 24.9805C155.281 25.8393 154.886 26.965 154.886 28.3576C154.886 29.727 155.281 30.8527 156.07 31.7347C156.882 32.6167 157.927 33.0577 159.203 33.0577C160.016 33.0577 160.758 32.8488 161.432 32.431C162.105 31.99 162.604 31.4098 162.929 30.6902L167.385 32.2569C166.712 33.9049 165.667 35.193 164.252 36.1215C162.836 37.0267 161.223 37.4793 159.412 37.4793Z" fill="#88849C"/>
<path d="M142.086 19.6538H146.787V37.0616H142.086V19.6538ZM144.454 16.9034C143.711 16.9034 143.073 16.6365 142.539 16.1027C142.005 15.5688 141.738 14.9421 141.738 14.2226C141.738 13.4799 142.005 12.8416 142.539 12.3078C143.096 11.7739 143.734 11.507 144.454 11.507C145.173 11.507 145.8 11.7739 146.334 12.3078C146.868 12.8416 147.135 13.4799 147.135 14.2226C147.135 14.9421 146.868 15.5688 146.334 16.1027C145.823 16.6365 145.197 16.9034 144.454 16.9034Z" fill="#88849C"/>
<path d="M133.172 11.9944H137.872V37.0616H133.172V11.9944Z" fill="#88849C"/>
<path d="M112.436 19.6537H116.892L117.066 22.056C117.646 21.1508 118.377 20.4545 119.259 19.9671C120.165 19.4797 121.197 19.236 122.358 19.236C123.936 19.236 125.317 19.6073 126.501 20.3501C127.708 21.0928 128.625 22.1489 129.251 23.5183C129.901 24.8877 130.226 26.5008 130.226 28.3576C130.226 30.1912 129.901 31.8043 129.251 33.197C128.625 34.5664 127.708 35.6224 126.501 36.3652C125.317 37.1079 123.936 37.4793 122.358 37.4793C121.221 37.4793 120.211 37.2472 119.329 36.783C118.447 36.2955 117.716 35.6108 117.136 34.7288V44.0246H112.436V19.6537ZM117.136 28.3576C117.136 29.7734 117.507 30.934 118.25 31.8392C119.016 32.7211 119.991 33.1621 121.174 33.1621C122.381 33.1621 123.379 32.7095 124.168 31.8043C124.958 30.8991 125.352 29.7502 125.352 28.3576C125.352 26.965 124.958 25.8277 124.168 24.9457C123.402 24.0405 122.416 23.5879 121.209 23.5879C120.002 23.5879 119.016 24.0289 118.25 24.9109C117.507 25.7929 117.136 26.9418 117.136 28.3576Z" fill="#88849C"/>
<path d="M91.5264 19.6537H95.9827L96.1568 22.056C96.7371 21.1508 97.4682 20.4545 98.3502 19.9671C99.2554 19.4797 100.288 19.236 101.449 19.236C103.027 19.236 104.408 19.6073 105.592 20.3501C106.799 21.0928 107.716 22.1489 108.342 23.5183C108.992 24.8877 109.317 26.5008 109.317 28.3576C109.317 30.1912 108.992 31.8043 108.342 33.197C107.716 34.5664 106.799 35.6224 105.592 36.3652C104.408 37.1079 103.027 37.4793 101.449 37.4793C100.311 37.4793 99.3018 37.2472 98.4198 36.783C97.5378 36.2955 96.8067 35.6108 96.2265 34.7288V44.0246H91.5264V19.6537ZM96.2265 28.3576C96.2265 29.7734 96.5978 30.934 97.3405 31.8392C98.1065 32.7211 99.0813 33.1621 100.265 33.1621C101.472 33.1621 102.47 32.7095 103.259 31.8043C104.048 30.8991 104.443 29.7502 104.443 28.3576C104.443 26.965 104.048 25.8277 103.259 24.9457C102.493 24.0405 101.507 23.5879 100.3 23.5879C99.0929 23.5879 98.1065 24.0289 97.3405 24.9109C96.5978 25.7929 96.2265 26.9418 96.2265 28.3576Z" fill="#88849C"/>
<path d="M83.1991 35.077C82.2243 36.6785 80.6228 37.4793 78.3946 37.4793C76.3056 37.4793 74.6809 37.0151 73.5204 36.0866C72.3831 35.1582 71.8145 33.8469 71.8145 32.1525C71.8145 30.3189 72.4295 28.9263 73.6597 27.9746C74.8898 27.023 76.6306 26.5472 78.882 26.5472H83.025C82.7001 24.3886 81.644 23.3094 79.8568 23.3094C78.3249 23.3094 77.1644 23.9593 76.3753 25.259L72.2322 23.8316C72.7893 22.5318 73.6945 21.4409 74.9478 20.5589C76.2244 19.677 77.8607 19.236 79.8568 19.236C82.4564 19.236 84.4293 19.9671 85.7755 21.4293C87.1217 22.8684 87.7715 24.8645 87.7251 27.4176L87.6555 37.0615H83.2687L83.1991 35.077ZM76.619 32.0132C76.619 32.5007 76.8511 32.8952 77.3153 33.197C77.7795 33.4755 78.4178 33.6147 79.2301 33.6147C79.9497 33.6147 80.5996 33.4407 81.1798 33.0925C81.7833 32.7444 82.2591 32.2918 82.6072 31.7347C82.9554 31.1777 83.1295 30.5974 83.1295 29.9939H80.5531C79.1373 29.9939 78.1277 30.168 77.5242 30.5162C76.9207 30.8411 76.619 31.3401 76.619 32.0132Z" fill="#88849C"/>
<path fill-rule="evenodd" clip-rule="evenodd" d="M24.2137 43.6303L12.9675 43.6303C6.34618 43.6303 0.978516 38.2626 0.978516 31.6413C0.978516 25.8019 5.42897 21.0019 11.123 20.4482C11.5245 14.6018 16.3943 9.98376 22.3426 9.98376H22.714C25.9138 9.98376 28.8114 11.2774 30.9125 13.3702C33.7294 11.2443 37.236 9.98376 41.037 9.98376H41.8817C50.7064 9.98376 57.8602 17.1376 57.8602 25.9623C57.8602 35.7201 49.95 43.6303 40.1923 43.6303L24.2139 43.6303L24.2137 43.6303Z" fill="#88849C"/>
</svg>
