<svg width="151" height="32" viewBox="0 0 151 32" fill="none" xmlns="http://www.w3.org/2000/svg">
<path d="M149.071 14.7741L145.503 14.9937C145.442 14.6887 145.311 14.4143 145.11 14.1703C144.908 13.9202 144.643 13.722 144.314 13.5756C143.99 13.4232 143.603 13.3469 143.152 13.3469C142.548 13.3469 142.039 13.475 141.624 13.7312C141.209 13.9812 141.002 14.3167 141.002 14.7375C141.002 15.073 141.136 15.3566 141.404 15.5884C141.673 15.8201 142.133 16.0062 142.786 16.1464L145.329 16.6588C146.695 16.9393 147.714 17.3907 148.385 18.0128C149.056 18.6349 149.391 19.4522 149.391 20.4647C149.391 21.3856 149.12 22.1938 148.577 22.8891C148.04 23.5844 147.302 24.1272 146.363 24.5176C145.43 24.9018 144.353 25.0939 143.134 25.0939C141.273 25.0939 139.791 24.7066 138.687 23.932C137.589 23.1513 136.946 22.0901 136.757 20.7483L140.59 20.547C140.706 21.1142 140.987 21.5473 141.432 21.8461C141.877 22.1389 142.447 22.2853 143.143 22.2853C143.826 22.2853 144.375 22.1541 144.789 21.8919C145.21 21.6235 145.424 21.2789 145.43 20.8581C145.424 20.5043 145.274 20.2146 144.982 19.9889C144.689 19.7572 144.237 19.5803 143.628 19.4583L141.194 18.9734C139.822 18.6989 138.8 18.2232 138.129 17.5462C137.464 16.8692 137.132 16.0062 137.132 14.9571C137.132 14.0544 137.376 13.2768 137.864 12.6242C138.358 11.9715 139.05 11.4684 139.941 11.1146C140.837 10.7609 141.886 10.584 143.088 10.584C144.863 10.584 146.259 10.9591 147.278 11.7093C148.303 12.4595 148.9 13.4811 149.071 14.7741Z" fill="#D9D7E6"/>
<path d="M134.604 14.7741L131.036 14.9937C130.975 14.6887 130.844 14.4143 130.643 14.1703C130.442 13.9202 130.176 13.722 129.847 13.5756C129.524 13.4232 129.136 13.3469 128.685 13.3469C128.081 13.3469 127.572 13.475 127.157 13.7312C126.742 13.9812 126.535 14.3167 126.535 14.7375C126.535 15.073 126.669 15.3566 126.938 15.5884C127.206 15.8201 127.666 16.0062 128.319 16.1464L130.862 16.6588C132.229 16.9393 133.247 17.3907 133.918 18.0128C134.589 18.6349 134.924 19.4522 134.924 20.4647C134.924 21.3856 134.653 22.1938 134.11 22.8891C133.574 23.5844 132.836 24.1272 131.896 24.5176C130.963 24.9018 129.887 25.0939 128.667 25.0939C126.806 25.0939 125.324 24.7066 124.22 23.932C123.123 23.1513 122.479 22.0901 122.29 20.7483L126.123 20.547C126.239 21.1142 126.52 21.5473 126.965 21.8461C127.41 22.1389 127.981 22.2853 128.676 22.2853C129.359 22.2853 129.908 22.1541 130.323 21.8919C130.744 21.6235 130.957 21.2789 130.963 20.8581C130.957 20.5043 130.808 20.2146 130.515 19.9889C130.222 19.7572 129.771 19.5803 129.161 19.4583L126.727 18.9734C125.355 18.6989 124.333 18.2232 123.662 17.5462C122.998 16.8692 122.665 16.0062 122.665 14.9571C122.665 14.0544 122.909 13.2768 123.397 12.6242C123.891 11.9715 124.583 11.4684 125.474 11.1146C126.37 10.7609 127.419 10.584 128.621 10.584C130.396 10.584 131.793 10.9591 132.811 11.7093C133.836 12.4595 134.434 13.4811 134.604 14.7741Z" fill="#D9D7E6"/>
<path d="M113.92 25.0939C112.474 25.0939 111.23 24.8012 110.187 24.2157C109.15 23.624 108.351 22.7884 107.79 21.7089C107.229 20.6232 106.948 19.3394 106.948 17.8573C106.948 16.4118 107.229 15.1431 107.79 14.0514C108.351 12.9596 109.141 12.1088 110.159 11.4989C111.184 10.8889 112.386 10.584 113.764 10.584C114.691 10.584 115.554 10.7334 116.353 11.0323C117.158 11.325 117.86 11.7672 118.457 12.3588C119.061 12.9505 119.531 13.6946 119.866 14.5911C120.202 15.4816 120.369 16.5246 120.369 17.72V18.7904H108.504V16.3752H116.701C116.701 15.814 116.579 15.3169 116.335 14.8839C116.091 14.4509 115.752 14.1124 115.319 13.8684C114.892 13.6183 114.395 13.4933 113.828 13.4933C113.236 13.4933 112.712 13.6305 112.255 13.905C111.803 14.1734 111.449 14.5363 111.193 14.9937C110.937 15.445 110.806 15.9482 110.8 16.5032V18.7996C110.8 19.4949 110.928 20.0957 111.184 20.6019C111.446 21.1081 111.815 21.4985 112.291 21.7729C112.767 22.0474 113.331 22.1846 113.984 22.1846C114.417 22.1846 114.813 22.1236 115.173 22.0017C115.533 21.8797 115.841 21.6967 116.097 21.4527C116.353 21.2088 116.548 20.9099 116.683 20.5561L120.287 20.794C120.104 21.6601 119.729 22.4164 119.162 23.0629C118.601 23.7033 117.875 24.2035 116.984 24.5633C116.1 24.9171 115.078 25.0939 113.92 25.0939Z" fill="#D9D7E6"/>
<path d="M95.3857 16.6954V24.8195H91.4883V10.767H95.2027V13.2463H95.3674C95.6784 12.429 96.1999 11.7825 96.9318 11.3067C97.6637 10.8249 98.5511 10.584 99.5941 10.584C100.57 10.584 101.421 10.7975 102.147 11.2244C102.872 11.6513 103.437 12.2613 103.839 13.0542C104.242 13.8409 104.443 14.7802 104.443 15.872V24.8195H100.546V16.5673C100.552 15.7073 100.332 15.0364 99.8869 14.5546C99.4416 14.0666 98.8286 13.8226 98.048 13.8226C97.5234 13.8226 97.0599 13.9355 96.6573 14.1612C96.2609 14.3868 95.9498 14.7162 95.7242 15.1492C95.5046 15.5762 95.3918 16.0915 95.3857 16.6954Z" fill="#D9D7E6"/>
<path d="M84.4696 24.8193V10.7668H88.367V24.8193H84.4696ZM86.4275 8.95533C85.848 8.95533 85.351 8.7632 84.9362 8.37895C84.5276 7.98861 84.3232 7.52202 84.3232 6.97919C84.3232 6.44247 84.5276 5.98198 84.9362 5.59773C85.351 5.20738 85.848 5.01221 86.4275 5.01221C87.0069 5.01221 87.5009 5.20738 87.9096 5.59773C88.3243 5.98198 88.5317 6.44247 88.5317 6.97919C88.5317 7.52202 88.3243 7.98861 87.9096 8.37895C87.5009 8.7632 87.0069 8.95533 86.4275 8.95533Z" fill="#D9D7E6"/>
<path d="M81.6951 14.7741L78.1271 14.9937C78.0661 14.6887 77.935 14.4143 77.7337 14.1703C77.5324 13.9202 77.2671 13.722 76.9377 13.5756C76.6145 13.4232 76.2272 13.3469 75.7759 13.3469C75.172 13.3469 74.6628 13.475 74.248 13.7312C73.8333 13.9812 73.6259 14.3167 73.6259 14.7375C73.6259 15.073 73.7601 15.3566 74.0284 15.5884C74.2968 15.8201 74.7573 16.0062 75.4099 16.1464L77.9533 16.6588C79.3195 16.9393 80.338 17.3907 81.0089 18.0128C81.6799 18.6349 82.0153 19.4522 82.0153 20.4647C82.0153 21.3856 81.7439 22.1938 81.2011 22.8891C80.6643 23.5844 79.9263 24.1272 78.9871 24.5176C78.0539 24.9018 76.9774 25.0939 75.7576 25.0939C73.8973 25.0939 72.4152 24.7066 71.3112 23.932C70.2134 23.1513 69.5699 22.0901 69.3809 20.7483L73.2142 20.547C73.3301 21.1142 73.6106 21.5473 74.0559 21.8461C74.5011 22.1389 75.0714 22.2853 75.7667 22.2853C76.4498 22.2853 76.9987 22.1541 77.4135 21.8919C77.8343 21.6235 78.0478 21.2789 78.0539 20.8581C78.0478 20.5043 77.8984 20.2146 77.6056 19.9889C77.3128 19.7572 76.8615 19.5803 76.2516 19.4583L73.818 18.9734C72.4457 18.6989 71.4241 18.2232 70.7532 17.5462C70.0884 16.8692 69.756 16.0062 69.756 14.9571C69.756 14.0544 69.9999 13.2768 70.4879 12.6242C70.9819 11.9715 71.6742 11.4684 72.5646 11.1146C73.4612 10.7609 74.5103 10.584 75.7118 10.584C77.4867 10.584 78.8834 10.9591 79.9019 11.7093C80.9266 12.4595 81.5243 13.4811 81.6951 14.7741Z" fill="#D9D7E6"/>
<path d="M62.9881 18.8358V10.7666H66.8855V24.8191H63.1436V22.2666H62.9973C62.6801 23.09 62.1525 23.7518 61.4145 24.2519C60.6826 24.752 59.7891 25.0021 58.7339 25.0021C57.7947 25.0021 56.9682 24.7886 56.2546 24.3617C55.541 23.9347 54.9829 23.3279 54.5804 22.5411C54.1839 21.7543 53.9827 20.812 53.9766 19.7141V10.7666H57.8739V19.0188C57.88 19.8483 58.1027 20.5039 58.5418 20.9858C58.9809 21.4676 59.5695 21.7085 60.3075 21.7085C60.7771 21.7085 61.2163 21.6018 61.6249 21.3883C62.0336 21.1688 62.3629 20.8455 62.613 20.4186C62.8692 19.9916 62.9942 19.464 62.9881 18.8358Z" fill="#D9D7E6"/>
<path d="M37.6709 24.8192V6.08252H41.5683V13.1271H41.6872C41.858 12.7489 42.105 12.3647 42.4283 11.9743C42.7576 11.5779 43.1846 11.2485 43.7091 10.9863C44.2397 10.7179 44.8984 10.5837 45.6852 10.5837C46.7099 10.5837 47.6553 10.8521 48.5213 11.3888C49.3874 11.9194 50.0797 12.7215 50.5981 13.7949C51.1165 14.8623 51.3758 16.2011 51.3758 17.8112C51.3758 19.3787 51.1226 20.7023 50.6164 21.7818C50.1163 22.8553 49.4332 23.6695 48.5671 24.2245C47.7071 24.7735 46.7434 25.0479 45.6761 25.0479C44.9198 25.0479 44.2763 24.9229 43.7457 24.6728C43.2212 24.4228 42.7912 24.1086 42.4557 23.7305C42.1203 23.3463 41.8641 22.959 41.6872 22.5686H41.5134V24.8192H37.6709ZM41.4859 17.7929C41.4859 18.6285 41.6018 19.3574 41.8336 19.9795C42.0654 20.6016 42.4008 21.0865 42.84 21.4342C43.2791 21.7757 43.8128 21.9465 44.441 21.9465C45.0753 21.9465 45.612 21.7727 46.0512 21.425C46.4903 21.0713 46.8227 20.5833 47.0484 19.9612C47.2802 19.333 47.396 18.6102 47.396 17.7929C47.396 16.9818 47.2832 16.2682 47.0575 15.6521C46.8319 15.0361 46.4995 14.5543 46.0603 14.2066C45.6212 13.859 45.0814 13.6851 44.441 13.6851C43.8067 13.6851 43.2699 13.8529 42.8308 14.1883C42.3978 14.5238 42.0654 14.9995 41.8336 15.6155C41.6018 16.2316 41.4859 16.9574 41.4859 17.7929Z" fill="#D9D7E6"/>
<path fill-rule="evenodd" clip-rule="evenodd" d="M15.4163 11.6566L19.6322 15.8725L15.618 19.8867L11.4021 15.6708L15.4163 11.6566ZM11.0938 7.33413L8.45059 4.69093C8.29982 4.54016 8.29982 4.29571 8.45059 4.14494L12.2271 0.36845C12.3779 0.217678 12.6223 0.217678 12.7731 0.36845L25.6836 13.279C27.116 14.7114 27.116 17.0336 25.6836 18.466L19.9405 24.2092L22.5837 26.8524C22.7344 27.0031 22.7344 27.2476 22.5837 27.3984L18.8072 31.1748C18.6564 31.3256 18.412 31.3256 18.2612 31.1748L5.35062 18.2643C3.91828 16.8319 3.91828 14.5096 5.35062 13.0773L11.0938 7.33413Z" fill="#D9D7E6"/>
</svg>
