<svg width="223" height="44" viewBox="0 0 223 44" fill="none" xmlns="http://www.w3.org/2000/svg">
<path d="M214.997 14.5H220.241L213.325 33.5C211.349 38.972 208.119 41.366 203.293 41.1V36.54C205.991 36.578 207.359 35.438 208.271 32.892L200.481 14.5H205.839L210.779 27.268L214.997 14.5Z" fill="#88849C"/>
<path d="M191.65 13.968C195.678 13.968 198.832 16.78 198.832 21.834V33.5H193.93V22.442C193.93 19.858 192.372 18.528 190.168 18.528C187.774 18.528 185.988 19.934 185.988 23.24V33.5H181.086V14.5H185.988V16.628C187.128 14.918 189.104 13.968 191.65 13.968Z" fill="#88849C"/>
<path d="M171.739 14.5H176.641V33.5H171.739V31.258C170.371 32.968 168.319 34.032 165.545 34.032C160.491 34.032 156.311 29.662 156.311 24C156.311 18.338 160.491 13.968 165.545 13.968C168.319 13.968 170.371 15.032 171.739 16.742V14.5ZM166.457 29.358C169.497 29.358 171.739 27.192 171.739 24C171.739 20.808 169.497 18.642 166.457 18.642C163.455 18.642 161.213 20.808 161.213 24C161.213 27.192 163.455 29.358 166.457 29.358Z" fill="#88849C"/>
<path d="M144.57 13.968C149.662 13.968 153.842 18.338 153.842 24C153.842 29.662 149.662 34.032 144.57 34.032C141.796 34.032 139.782 33.006 138.414 31.258V41.1H133.512V14.5H138.414V16.742C139.782 14.994 141.796 13.968 144.57 13.968ZM143.658 29.358C146.698 29.358 148.94 27.192 148.94 24C148.94 20.808 146.698 18.642 143.658 18.642C140.656 18.642 138.414 20.808 138.414 24C138.414 27.192 140.656 29.358 143.658 29.358Z" fill="#88849C"/>
<path d="M122.166 13.968C126.498 13.968 129.348 17.046 129.348 21.796V33.5H124.446V22.138C124.446 19.896 123.306 18.528 121.254 18.528C119.088 18.528 117.72 19.972 117.72 22.822V33.5H112.818V22.138C112.818 19.896 111.678 18.528 109.626 18.528C107.536 18.528 106.054 19.972 106.054 22.822V33.5H101.152V14.5H106.054V16.514C107.118 14.918 108.904 13.968 111.336 13.968C113.692 13.968 115.44 14.956 116.504 16.704C117.682 14.994 119.582 13.968 122.166 13.968Z" fill="#88849C"/>
<path d="M87.6336 34.032C82.0476 34.032 77.6016 29.662 77.6016 24C77.6016 18.338 82.0476 13.968 87.6336 13.968C93.2196 13.968 97.7036 18.338 97.7036 24C97.7036 29.662 93.2196 34.032 87.6336 34.032ZM87.6336 29.244C90.5596 29.244 92.8016 27.078 92.8016 24C92.8016 20.922 90.5596 18.756 87.6336 18.756C84.7456 18.756 82.5036 20.922 82.5036 24C82.5036 27.078 84.7456 29.244 87.6336 29.244Z" fill="#88849C"/>
<path d="M67.7058 34.032C61.9298 34.032 57.6738 29.662 57.6738 24C57.6738 18.338 61.9298 13.968 67.7058 13.968C71.4298 13.968 74.6598 15.944 76.2178 18.87L71.9998 21.34C71.2398 19.782 69.6058 18.794 67.6678 18.794C64.7418 18.794 62.5758 20.96 62.5758 24C62.5758 27.002 64.7418 29.168 67.6678 29.168C69.6438 29.168 71.2778 28.218 72.0378 26.66L76.2938 29.092C74.6598 32.056 71.4298 34.032 67.7058 34.032Z" fill="#88849C"/>
<path fill-rule="evenodd" clip-rule="evenodd" d="M15.8397 3.40411C14.2001 3.40411 12.871 4.73323 12.871 6.37279V15.6451H3.42766C1.7881 15.6451 0.458984 16.9743 0.458984 18.6138V40.5019C0.458984 42.1414 1.78811 43.4706 3.42766 43.4706H25.0557C26.6953 43.4706 28.0244 42.1414 28.0244 40.5019V31.2296H37.4677C39.1073 31.2296 40.4364 29.9004 40.4364 28.2609V6.37279C40.4364 4.73323 39.1073 3.40411 37.4677 3.40411H15.8397ZM28.0244 31.2296V18.6138C28.0244 16.9742 26.6953 15.6451 25.0557 15.6451H12.871V28.2609C12.871 29.9004 14.2001 31.2296 15.8397 31.2296H28.0244Z" fill="#88849C"/>
</svg>
