<svg width="159" height="31" viewBox="0 0 159 31" fill="none" xmlns="http://www.w3.org/2000/svg">
<path d="M153.56 10.0195H157.313L152.364 23.6166C150.949 27.5326 148.638 29.2458 145.184 29.0555V25.7922C147.115 25.8194 148.094 25.0035 148.747 23.1815L143.172 10.0195H147.006L150.542 19.1568L153.56 10.0195Z" fill="#D9D7E6"/>
<path d="M136.852 9.63867C139.735 9.63867 141.992 11.651 141.992 15.2679V23.6165H138.484V15.703C138.484 13.8538 137.369 12.902 135.791 12.902C134.078 12.902 132.8 13.9082 132.8 16.2741V23.6165H129.292V10.0194H132.8V11.5423C133.616 10.3185 135.03 9.63867 136.852 9.63867Z" fill="#D9D7E6"/>
<path d="M122.602 10.0194H126.11V23.6165H122.602V22.012C121.623 23.2358 120.155 23.9972 118.17 23.9972C114.553 23.9972 111.562 20.8699 111.562 16.8179C111.562 12.766 114.553 9.63867 118.17 9.63867C120.155 9.63867 121.623 10.4001 122.602 11.6238V10.0194ZM118.822 20.6523C120.998 20.6523 122.602 19.1023 122.602 16.8179C122.602 14.5336 120.998 12.9836 118.822 12.9836C116.674 12.9836 115.07 14.5336 115.07 16.8179C115.07 19.1023 116.674 20.6523 118.822 20.6523Z" fill="#D9D7E6"/>
<path d="M103.16 9.63867C106.804 9.63867 109.795 12.766 109.795 16.8179C109.795 20.8699 106.804 23.9972 103.16 23.9972C101.174 23.9972 99.7331 23.263 98.7541 22.012V29.0553H95.2461V10.0194H98.7541V11.6238C99.7331 10.3729 101.174 9.63867 103.16 9.63867ZM102.507 20.6523C104.682 20.6523 106.287 19.1023 106.287 16.8179C106.287 14.5336 104.682 12.9836 102.507 12.9836C100.359 12.9836 98.7541 14.5336 98.7541 16.8179C98.7541 19.1023 100.359 20.6523 102.507 20.6523Z" fill="#D9D7E6"/>
<path d="M87.1273 9.63867C90.2274 9.63867 92.267 11.8414 92.267 15.2407V23.6165H88.7589V15.4854C88.7589 13.881 87.9431 12.902 86.4746 12.902C84.9245 12.902 83.9455 13.9354 83.9455 15.9749V23.6165H80.4375V15.4854C80.4375 13.881 79.6217 12.902 78.1532 12.902C76.6575 12.902 75.5969 13.9354 75.5969 15.9749V23.6165H72.0889V10.0194H75.5969V11.4607C76.3584 10.3185 77.6365 9.63867 79.3769 9.63867C81.063 9.63867 82.3139 10.3457 83.0753 11.5967C83.9184 10.3729 85.2781 9.63867 87.1273 9.63867Z" fill="#D9D7E6"/>
<path d="M62.4136 23.9972C58.4161 23.9972 55.2344 20.8699 55.2344 16.8179C55.2344 12.766 58.4161 9.63867 62.4136 9.63867C66.4112 9.63867 69.6201 12.766 69.6201 16.8179C69.6201 20.8699 66.4112 23.9972 62.4136 23.9972ZM62.4136 20.5707C64.5076 20.5707 66.1121 19.0207 66.1121 16.8179C66.1121 14.6152 64.5076 13.0651 62.4136 13.0651C60.3469 13.0651 58.7424 14.6152 58.7424 16.8179C58.7424 19.0207 60.3469 20.5707 62.4136 20.5707Z" fill="#D9D7E6"/>
<path d="M48.1529 23.9972C44.0194 23.9972 40.9736 20.8699 40.9736 16.8179C40.9736 12.766 44.0194 9.63867 48.1529 9.63867C50.8179 9.63867 53.1294 11.0528 54.2444 13.1467L51.2259 14.9143C50.682 13.7994 49.5126 13.0923 48.1257 13.0923C46.0318 13.0923 44.4817 14.6424 44.4817 16.8179C44.4817 18.9663 46.0318 20.5164 48.1257 20.5164C49.5398 20.5164 50.7092 19.8365 51.253 18.7215L54.2988 20.462C53.1294 22.5831 50.8179 23.9972 48.1529 23.9972Z" fill="#D9D7E6"/>
<path fill-rule="evenodd" clip-rule="evenodd" d="M11.0344 2.0498C9.86108 2.0498 8.90991 3.00097 8.90991 4.1743V10.8101H2.15184C0.978512 10.8101 0.0273438 11.7612 0.0273438 12.9346V28.5985C0.0273438 29.7718 0.978512 30.723 2.15184 30.723H17.6297C18.803 30.723 19.7542 29.7718 19.7542 28.5985V21.9627H26.5122C27.6856 21.9627 28.6367 21.0116 28.6367 19.8382V4.1743C28.6367 3.00097 27.6856 2.0498 26.5122 2.0498H11.0344ZM19.7542 21.9627V12.9346C19.7542 11.7612 18.803 10.8101 17.6297 10.8101H8.90991V19.8382C8.90991 21.0116 9.86108 21.9627 11.0344 21.9627H19.7542Z" fill="#D9D7E6"/>
</svg>
