<svg width="256" height="256" viewBox="0 0 256 256" fill="none" xmlns="http://www.w3.org/2000/svg">
<rect width="256" height="256" rx="56" fill="#1D1A27"/>
<mask id="mask0" mask-type="alpha" maskUnits="userSpaceOnUse" x="88" y="43" width="136" height="181">
<path d="M88.7646 120.073C95.3593 96.2001 120.026 82.2108 143.903 88.8054C167.776 95.4 181.766 120.067 175.171 143.942C165.609 178.555 140.672 206.814 107.534 220.704C147.832 231.835 191.918 214.239 212.763 175.946C237.053 131.328 220.521 75.5027 175.905 51.2131C169.647 47.7839 163.098 45.1588 156.468 43.3276C123.146 56.8984 98.0916 85.3287 88.7646 120.073Z" fill="url(#paint0_linear)"/>
</mask>
<g mask="url(#mask0)">
<rect x="33.04" y="33.0586" width="197.887" height="197.887" fill="url(#paint1_linear)"/>
</g>
<mask id="mask1" mask-type="alpha" maskUnits="userSpaceOnUse" x="40" y="40" width="136" height="181">
<path d="M88.0304 212.803C94.3507 216.248 100.838 218.855 107.472 220.688L107.534 220.705C140.672 206.814 165.609 178.555 175.171 143.943C168.576 167.818 143.907 181.807 120.034 175.212C96.1571 168.616 82.1678 143.949 88.7645 120.074C98.0893 85.3292 123.146 56.8989 156.468 43.3281C116.184 32.1329 72.0366 49.7124 51.1743 88.0697C26.9465 132.704 43.4125 188.513 88.0304 212.803Z" fill="url(#paint2_linear)"/>
</mask>
<g mask="url(#mask1)">
<rect x="33.04" y="33.0586" width="197.887" height="197.887" fill="url(#paint3_linear)"/>
</g>
<defs>
<linearGradient id="paint0_linear" x1="129.352" y1="56.028" x2="177.832" y2="206.745" gradientUnits="userSpaceOnUse">
<stop stop-color="#E3F1DA"/>
<stop offset="1" stop-color="#CCF3B6"/>
</linearGradient>
<linearGradient id="paint1_linear" x1="33.04" y1="132.002" x2="234.379" y2="135.589" gradientUnits="userSpaceOnUse">
<stop stop-color="#6F86FF"/>
<stop offset="0.333333" stop-color="#B372CE"/>
<stop offset="1" stop-color="#FF7586"/>
</linearGradient>
<linearGradient id="paint2_linear" x1="79.7098" y1="72.4202" x2="154.234" y2="188.186" gradientUnits="userSpaceOnUse">
<stop stop-color="#D0F1BD"/>
<stop offset="1" stop-color="#90E65D"/>
</linearGradient>
<linearGradient id="paint3_linear" x1="33.04" y1="132.002" x2="171.414" y2="165.309" gradientUnits="userSpaceOnUse">
<stop stop-color="#6F86FF"/>
<stop offset="0.9999" stop-color="#A75CC7"/>
<stop offset="1" stop-color="#FF7586"/>
</linearGradient>
</defs>
</svg>
