<svg width="177" height="42" viewBox="0 0 177 42" fill="none" xmlns="http://www.w3.org/2000/svg">
<path d="M170.13 33.0338C170.61 32.2898 170.886 31.4738 170.958 30.5858C171.03 29.6978 171.066 28.8218 171.066 27.9578C170.37 28.8458 169.518 29.4698 168.51 29.8298C167.502 30.1898 166.41 30.3698 165.234 30.3698C163.866 30.3698 162.678 30.1658 161.67 29.7578C160.686 29.3498 159.906 28.7258 159.33 27.8858C158.754 27.1178 158.358 26.2178 158.142 25.1858C157.926 24.1298 157.818 22.9898 157.818 21.7658V11.1098H162.894V21.1538C162.894 21.8018 162.942 22.4378 163.038 23.0618C163.158 23.6618 163.398 24.1658 163.758 24.5738C164.334 25.4378 165.378 25.8698 166.89 25.8698C167.61 25.8698 168.282 25.7258 168.906 25.4378C169.53 25.1258 170.022 24.6458 170.382 23.9978C170.694 23.4458 170.886 22.8698 170.958 22.2698C171.03 21.6458 171.066 20.9738 171.066 20.2538V11.1098H176.178V26.6978C176.178 27.5618 176.166 28.4498 176.142 29.3618C176.142 30.2498 176.07 31.1258 175.926 31.9898C175.806 32.8538 175.578 33.6938 175.242 34.5098C174.906 35.3258 174.438 36.0818 173.838 36.7778C172.998 37.7378 171.894 38.5058 170.526 39.0818C169.182 39.6578 167.562 39.9338 165.666 39.9098C164.274 39.9338 162.894 39.7418 161.526 39.3338C160.158 38.9498 158.898 38.3858 157.746 37.6418L159.366 33.3218C159.99 33.7778 160.818 34.1978 161.85 34.5818C162.906 34.9658 164.142 35.1578 165.558 35.1578C166.71 35.1578 167.646 34.9658 168.366 34.5818C169.11 34.2218 169.698 33.7058 170.13 33.0338Z" fill="#88849C"/>
<path d="M146.716 25.8698C147.676 25.8698 148.432 25.6418 148.984 25.1858C149.56 24.7298 149.908 24.2138 150.028 23.6378H155.356C155.188 24.8618 154.84 25.8938 154.312 26.7338C153.784 27.5738 153.124 28.2698 152.332 28.8218C151.564 29.3738 150.688 29.7698 149.704 30.0098C148.72 30.2498 147.7 30.3698 146.644 30.3698C145.06 30.3698 143.68 30.1538 142.504 29.7218C141.352 29.2658 140.392 28.6178 139.624 27.7778C138.856 26.9138 138.268 25.8818 137.86 24.6818C137.476 23.4578 137.284 22.0898 137.284 20.5778C137.284 19.1138 137.5 17.7698 137.932 16.5458C138.364 15.3218 138.976 14.2778 139.768 13.4138C140.584 12.5498 141.58 11.8898 142.756 11.4338C143.932 10.9538 145.276 10.7138 146.788 10.7138C147.892 10.7138 148.924 10.8458 149.884 11.1098C150.868 11.3738 151.732 11.7818 152.476 12.3338C153.244 12.8858 153.868 13.5938 154.348 14.4578C154.852 15.2978 155.188 16.3058 155.356 17.4818H150.028C149.908 16.9058 149.548 16.3898 148.948 15.9338C148.372 15.4778 147.616 15.2498 146.68 15.2498C145.888 15.2498 145.204 15.3938 144.628 15.6818C144.052 15.9698 143.596 16.3658 143.26 16.8698C142.924 17.3738 142.684 17.9498 142.54 18.5978C142.396 19.2458 142.324 19.9298 142.324 20.6498C142.324 21.4178 142.408 22.1258 142.576 22.7738C142.744 23.3978 142.996 23.9498 143.332 24.4298C143.668 24.8858 144.112 25.2458 144.664 25.5098C145.24 25.7498 145.924 25.8698 146.716 25.8698Z" fill="#88849C"/>
<path d="M121.83 13.5219C123.366 11.6739 125.262 10.7379 127.518 10.7139C128.742 10.6899 129.822 10.8939 130.758 11.3259C131.694 11.7339 132.45 12.2979 133.026 13.0179C133.722 13.8579 134.202 14.8419 134.466 15.9699C134.73 17.0739 134.862 18.3099 134.862 19.6779V30.0819H129.75V20.0739C129.75 19.4019 129.678 18.7659 129.534 18.1659C129.414 17.5419 129.198 17.0139 128.886 16.5819C128.574 16.1259 128.154 15.7899 127.626 15.5739C127.122 15.3579 126.546 15.2499 125.898 15.2499C125.082 15.2739 124.386 15.4539 123.81 15.7899C123.258 16.1259 122.838 16.5579 122.55 17.0859C122.262 17.5899 122.058 18.1659 121.938 18.8139C121.842 19.4379 121.794 20.0739 121.794 20.7219V30.0819H116.718V11.1099H121.578L121.83 13.5219Z" fill="#88849C"/>
<path d="M105.3 26.2298C106.02 26.2298 106.632 26.1218 107.136 25.9058C107.664 25.6658 108.096 25.2818 108.432 24.7538H113.76C113.496 25.7378 113.088 26.5898 112.536 27.3098C112.008 28.0298 111.36 28.6178 110.592 29.0738C109.848 29.5298 109.02 29.8658 108.108 30.0818C107.196 30.2738 106.236 30.3698 105.228 30.3698C102.156 30.3698 99.8283 29.5058 98.2443 27.7778C96.6843 26.0498 95.9043 23.6258 95.9043 20.5058C95.9043 19.0898 96.1083 17.7818 96.5163 16.5818C96.9483 15.3818 97.5483 14.3498 98.3163 13.4858C99.0843 12.5978 100.032 11.9138 101.16 11.4338C102.312 10.9538 103.62 10.7138 105.084 10.7138C106.788 10.7138 108.264 11.0138 109.512 11.6138C110.76 12.2138 111.744 13.0418 112.464 14.0978C113.208 15.1298 113.7 16.3418 113.94 17.7338C114.204 19.1258 114.204 20.6138 113.94 22.1978H100.98C101.076 23.3258 101.472 24.2858 102.168 25.0778C102.864 25.8458 103.908 26.2298 105.3 26.2298ZM109.224 18.7058C109.224 18.1058 109.116 17.5778 108.9 17.1218C108.684 16.6418 108.396 16.2578 108.036 15.9698C107.676 15.6578 107.244 15.4298 106.74 15.2858C106.26 15.1418 105.756 15.0698 105.228 15.0698C103.956 15.0938 102.96 15.4418 102.24 16.1138C101.544 16.7618 101.136 17.6258 101.016 18.7058H109.224Z" fill="#88849C"/>
<path d="M88.2487 28.1379C87.5287 28.9539 86.6647 29.5299 85.6567 29.8659C84.6487 30.2019 83.5567 30.3699 82.3807 30.3699C81.2047 30.3699 80.0527 30.1899 78.9247 29.8299C77.8207 29.4459 76.8607 28.8339 76.0447 27.9939C75.1327 27.0339 74.4967 25.9299 74.1367 24.6819C73.7767 23.4339 73.5967 22.1499 73.5967 20.8299C73.5967 17.7099 74.4607 15.2139 76.1887 13.3419C76.9327 12.5259 77.8927 11.8899 79.0687 11.4339C80.2687 10.9779 81.5527 10.7619 82.9207 10.7859C83.8087 10.7379 84.7687 10.8939 85.8007 11.2539C86.8327 11.6139 87.7207 12.2139 88.4647 13.0539L89.0047 11.1099H93.3967V28.8939C93.3967 29.6619 93.3487 30.4179 93.2527 31.1619C93.1807 31.9299 93.0487 32.6619 92.8567 33.3579C92.6647 34.0779 92.3767 34.7619 91.9927 35.4099C91.5607 36.2019 91.0327 36.8739 90.4087 37.4259C89.8087 37.9779 89.1367 38.4339 88.3927 38.7939C87.6487 39.1779 86.8567 39.4539 86.0167 39.6219C85.1767 39.7899 84.3247 39.8739 83.4607 39.8739C82.3567 39.8739 81.3007 39.7419 80.2927 39.4779C79.2847 39.2379 78.3607 38.8299 77.5207 38.2539C76.7047 37.7019 76.0207 36.9939 75.4687 36.1299C74.9407 35.2659 74.5927 34.2339 74.4247 33.0339H79.8247C79.9207 33.6099 80.3047 34.1259 80.9767 34.5819C81.6487 35.0379 82.4647 35.2659 83.4247 35.2659C84.4567 35.2659 85.2967 35.0619 85.9447 34.6539C86.6167 34.2459 87.1207 33.7059 87.4567 33.0339C87.7927 32.3619 88.0087 31.5939 88.1047 30.7299C88.2007 29.8659 88.2487 29.0019 88.2487 28.1379ZM83.5327 25.8699C84.3247 25.8699 85.0207 25.7259 85.6207 25.4379C86.2447 25.1499 86.7487 24.7659 87.1327 24.2859C87.5167 23.7819 87.8047 23.2059 87.9967 22.5579C88.1887 21.8859 88.2847 21.1779 88.2847 20.4339C88.2847 18.9459 87.8647 17.7219 87.0247 16.7619C86.2087 15.7779 85.0327 15.2739 83.4967 15.2499C82.7047 15.2499 81.9967 15.3939 81.3727 15.6819C80.7727 15.9699 80.2687 16.3539 79.8607 16.8339C79.4767 17.3139 79.1887 17.8779 78.9967 18.5259C78.8047 19.1739 78.7087 19.8699 78.7087 20.6139C78.7087 21.4059 78.8047 22.1259 78.9967 22.7739C79.2127 23.3979 79.5247 23.9499 79.9327 24.4299C80.3407 24.8859 80.8447 25.2459 81.4447 25.5099C82.0447 25.7499 82.7407 25.8699 83.5327 25.8699Z" fill="#88849C"/>
<path d="M66.352 27.7418C65.632 28.7018 64.756 29.3858 63.724 29.7938C62.692 30.2018 61.492 30.3938 60.124 30.3698C58.372 30.3218 56.908 29.8298 55.732 28.8938C55.108 28.3658 54.616 27.7418 54.256 27.0218C53.92 26.2778 53.752 25.4018 53.752 24.3938C53.776 23.3618 54.004 22.4498 54.436 21.6578C54.892 20.8418 55.576 20.1698 56.488 19.6418C57.256 19.2338 58.12 18.9458 59.08 18.7778C60.064 18.6098 61.132 18.5258 62.284 18.5258H66.172C66.244 17.3498 65.968 16.4738 65.344 15.8978C64.744 15.2978 63.892 14.9858 62.788 14.9618C62.428 14.9618 62.056 14.9858 61.672 15.0338C61.288 15.0818 60.928 15.1778 60.592 15.3218C60.28 15.4658 60.004 15.6698 59.764 15.9338C59.548 16.1738 59.404 16.4738 59.332 16.8338H54.112C54.232 15.6818 54.544 14.7218 55.048 13.9538C55.576 13.1618 56.236 12.5258 57.028 12.0458C57.82 11.5658 58.696 11.2298 59.656 11.0378C60.64 10.8218 61.648 10.7138 62.68 10.7138C63.256 10.7138 63.844 10.7498 64.444 10.8218C65.044 10.8698 65.632 10.9898 66.208 11.1818C66.784 11.3498 67.324 11.5898 67.828 11.9018C68.356 12.1898 68.848 12.5738 69.304 13.0538C70.12 13.9898 70.624 15.0698 70.816 16.2938C71.032 17.4938 71.128 18.6698 71.104 19.8218V30.0818H66.46L66.352 27.7418ZM66.172 21.6938H62.464C62.104 21.6938 61.696 21.7298 61.24 21.8018C60.784 21.8738 60.388 22.0058 60.052 22.1978C59.716 22.3898 59.428 22.6418 59.188 22.9538C58.972 23.2658 58.864 23.6498 58.864 24.1058C58.864 24.4898 58.936 24.8258 59.08 25.1138C59.248 25.4018 59.452 25.6418 59.692 25.8338C59.956 26.0258 60.268 26.1818 60.628 26.3018C60.988 26.3978 61.348 26.4458 61.708 26.4458C62.404 26.4698 63.052 26.3498 63.652 26.0858C64.276 25.8218 64.816 25.4498 65.272 24.9698C65.56 24.5858 65.776 24.1538 65.92 23.6738C66.088 23.1698 66.172 22.5098 66.172 21.6938Z" fill="#88849C"/>
<path fill-rule="evenodd" clip-rule="evenodd" d="M39.9673 22.061C39.764 25.6151 38.6148 29.0581 36.6294 32.0295C34.4318 35.3185 31.3082 37.882 27.6537 39.3957C23.9992 40.9095 19.9778 41.3055 16.0982 40.5338C12.2186 39.7621 8.65492 37.8573 5.85787 35.0603C3.06082 32.2632 1.15601 28.6996 0.384303 24.8199C-0.387401 20.9403 0.00866568 16.919 1.52242 13.2645C3.03617 9.60994 5.59962 6.48637 8.8886 4.28874C11.86 2.3033 15.3031 1.15419 18.8572 0.950806V10.9836C17.2839 11.1646 15.7702 11.7175 14.4443 12.6034C12.7998 13.7023 11.5181 15.264 10.7612 17.0913C10.0043 18.9186 9.8063 20.9292 10.1922 22.869C10.578 24.8088 11.5304 26.5907 12.9289 27.9892C14.3275 29.3877 16.1093 30.3401 18.0491 30.726C19.9889 31.1118 21.9996 30.9138 23.8268 30.1569C25.6541 29.4001 27.2159 28.1183 28.3147 26.4738C29.2006 25.148 29.7535 23.6343 29.9345 22.061H39.9673Z" fill="#88849C"/>
<path fill-rule="evenodd" clip-rule="evenodd" d="M29.9947 0.918152H21.8135V10.9181H29.9947V19.0996L39.9947 19.0996V10.9181H39.9953V0.918152H38.1653H29.9947Z" fill="#88849C"/>
</svg>
