<svg width="211" height="44" viewBox="0 0 211 44" fill="none" xmlns="http://www.w3.org/2000/svg">
<path d="M208.724 20.9631L203.738 21.2699C203.653 20.8438 203.47 20.4602 203.188 20.1193C202.907 19.7699 202.536 19.4929 202.076 19.2884C201.625 19.0753 201.083 18.9688 200.453 18.9688C199.609 18.9688 198.897 19.1477 198.318 19.5057C197.738 19.8551 197.448 20.3239 197.448 20.9119C197.448 21.3807 197.636 21.777 198.011 22.1009C198.386 22.4247 199.029 22.6847 199.941 22.8807L203.495 23.5966C205.404 23.9887 206.828 24.6193 207.765 25.4887C208.703 26.358 209.171 27.5 209.171 28.9148C209.171 30.2017 208.792 31.331 208.034 32.3026C207.284 33.2742 206.252 34.0327 204.94 34.5781C203.636 35.1151 202.132 35.3835 200.427 35.3835C197.828 35.3835 195.757 34.8423 194.214 33.76C192.68 32.6691 191.781 31.1861 191.517 29.3111L196.873 29.0298C197.035 29.8225 197.427 30.4276 198.049 30.8452C198.671 31.2543 199.468 31.4588 200.44 31.4588C201.394 31.4588 202.161 31.2756 202.741 30.9091C203.329 30.5341 203.627 30.0526 203.636 29.4645C203.627 28.9702 203.419 28.5654 203.01 28.25C202.6 27.9262 201.97 27.679 201.117 27.5085L197.717 26.831C195.799 26.4475 194.372 25.7827 193.434 24.8367C192.505 23.8906 192.041 22.6847 192.041 21.2188C192.041 19.9574 192.382 18.8708 193.063 17.9588C193.754 17.0469 194.721 16.3438 195.965 15.8494C197.218 15.3551 198.684 15.108 200.363 15.108C202.843 15.108 204.795 15.6321 206.218 16.6804C207.65 17.7287 208.485 19.1563 208.724 20.9631Z" fill="#88849C"/>
<path d="M188.509 20.9631L183.523 21.2699C183.438 20.8438 183.255 20.4602 182.974 20.1193C182.692 19.7699 182.322 19.4929 181.861 19.2884C181.41 19.0753 180.869 18.9688 180.238 18.9688C179.394 18.9688 178.682 19.1477 178.103 19.5057C177.523 19.8551 177.234 20.3239 177.234 20.9119C177.234 21.3807 177.421 21.777 177.796 22.1009C178.171 22.4247 178.815 22.6847 179.726 22.8807L183.28 23.5966C185.19 23.9887 186.613 24.6193 187.55 25.4887C188.488 26.358 188.957 27.5 188.957 28.9148C188.957 30.2017 188.577 31.331 187.819 32.3026C187.069 33.2742 186.038 34.0327 184.725 34.5781C183.421 35.1151 181.917 35.3835 180.212 35.3835C177.613 35.3835 175.542 34.8423 173.999 33.76C172.465 32.6691 171.566 31.1861 171.302 29.3111L176.658 29.0298C176.82 29.8225 177.212 30.4276 177.834 30.8452C178.457 31.2543 179.253 31.4588 180.225 31.4588C181.18 31.4588 181.947 31.2756 182.526 30.9091C183.114 30.5341 183.413 30.0526 183.421 29.4645C183.413 28.9702 183.204 28.5654 182.795 28.25C182.386 27.9262 181.755 27.679 180.903 27.5085L177.502 26.831C175.584 26.4475 174.157 25.7827 173.219 24.8367C172.29 23.8906 171.826 22.6847 171.826 21.2188C171.826 19.9574 172.167 18.8708 172.849 17.9588C173.539 17.0469 174.506 16.3438 175.751 15.8494C177.003 15.3551 178.469 15.108 180.148 15.108C182.628 15.108 184.58 15.6321 186.003 16.6804C187.435 17.7287 188.271 19.1563 188.509 20.9631Z" fill="#88849C"/>
<path d="M159.605 35.3835C157.585 35.3835 155.846 34.9744 154.389 34.1563C152.94 33.3296 151.824 32.1619 151.039 30.6534C150.255 29.1364 149.863 27.3423 149.863 25.2713C149.863 23.2514 150.255 21.4787 151.039 19.9531C151.824 18.4276 152.927 17.2387 154.35 16.3864C155.782 15.5341 157.461 15.108 159.387 15.108C160.683 15.108 161.889 15.3168 163.005 15.7344C164.13 16.1435 165.11 16.7614 165.946 17.5881C166.789 18.4148 167.446 19.4546 167.914 20.7074C168.383 21.9517 168.618 23.4091 168.618 25.0796V26.5753H152.037V23.2003H163.491C163.491 22.4162 163.321 21.7216 162.98 21.1165C162.639 20.5114 162.166 20.0384 161.561 19.6975C160.964 19.348 160.27 19.1733 159.477 19.1733C158.65 19.1733 157.917 19.3651 157.278 19.7486C156.647 20.1236 156.153 20.6307 155.795 21.2699C155.437 21.9006 155.254 22.6037 155.245 23.3793V26.5881C155.245 27.5597 155.424 28.3992 155.782 29.1065C156.149 29.8139 156.664 30.3594 157.329 30.7429C157.994 31.1264 158.782 31.3182 159.694 31.3182C160.299 31.3182 160.853 31.233 161.356 31.0625C161.859 30.8921 162.289 30.6364 162.647 30.2955C163.005 29.9546 163.278 29.5369 163.466 29.0426L168.502 29.375C168.247 30.5852 167.723 31.6421 166.93 32.5455C166.146 33.4404 165.132 34.1392 163.887 34.6421C162.652 35.1364 161.224 35.3835 159.605 35.3835Z" fill="#88849C"/>
<path d="M133.707 23.6477V35H128.261V15.3637H133.451V18.8281H133.681C134.116 17.6861 134.845 16.7827 135.867 16.1179C136.89 15.4446 138.13 15.108 139.587 15.108C140.951 15.108 142.14 15.4063 143.154 16.0029C144.168 16.5994 144.957 17.4517 145.519 18.5597C146.082 19.6591 146.363 20.9716 146.363 22.4972V35H140.917V23.4688C140.926 22.2671 140.619 21.3296 139.997 20.6563C139.374 19.9744 138.518 19.6335 137.427 19.6335C136.694 19.6335 136.046 19.7912 135.484 20.1065C134.93 20.4219 134.495 20.8821 134.18 21.4872C133.873 22.0838 133.715 22.804 133.707 23.6477Z" fill="#88849C"/>
<path d="M118.453 35V15.3636H123.899V35H118.453ZM121.188 12.8324C120.379 12.8324 119.684 12.5639 119.105 12.027C118.534 11.4815 118.248 10.8296 118.248 10.071C118.248 9.32103 118.534 8.67756 119.105 8.14063C119.684 7.59518 120.379 7.32245 121.188 7.32245C121.998 7.32245 122.688 7.59518 123.259 8.14063C123.839 8.67756 124.129 9.32103 124.129 10.071C124.129 10.8296 123.839 11.4815 123.259 12.027C122.688 12.5639 121.998 12.8324 121.188 12.8324Z" fill="#88849C"/>
<path d="M114.576 20.9631L109.59 21.2699C109.505 20.8438 109.321 20.4602 109.04 20.1193C108.759 19.7699 108.388 19.4929 107.928 19.2884C107.476 19.0753 106.935 18.9688 106.304 18.9688C105.46 18.9688 104.749 19.1477 104.169 19.5057C103.59 19.8551 103.3 20.3239 103.3 20.9119C103.3 21.3807 103.487 21.777 103.862 22.1009C104.237 22.4247 104.881 22.6847 105.793 22.8807L109.347 23.5966C111.256 23.9887 112.679 24.6193 113.617 25.4887C114.554 26.358 115.023 27.5 115.023 28.9148C115.023 30.2017 114.644 31.331 113.885 32.3026C113.135 33.2742 112.104 34.0327 110.791 34.5781C109.487 35.1151 107.983 35.3835 106.279 35.3835C103.679 35.3835 101.608 34.8423 100.066 33.76C98.5315 32.6691 97.6324 31.1861 97.3682 29.3111L102.725 29.0298C102.887 29.8225 103.279 30.4276 103.901 30.8452C104.523 31.2543 105.32 31.4588 106.291 31.4588C107.246 31.4588 108.013 31.2756 108.593 30.9091C109.181 30.5341 109.479 30.0526 109.487 29.4645C109.479 28.9702 109.27 28.5654 108.861 28.25C108.452 27.9262 107.821 27.679 106.969 27.5085L103.568 26.831C101.651 26.4475 100.223 25.7827 99.2858 24.8367C98.3568 23.8906 97.8923 22.6847 97.8923 21.2188C97.8923 19.9574 98.2332 18.8708 98.915 17.9588C99.6054 17.0469 100.573 16.3438 101.817 15.8494C103.07 15.3551 104.536 15.108 106.215 15.108C108.695 15.108 110.647 15.6321 112.07 16.6804C113.502 17.7287 114.337 19.1563 114.576 20.9631Z" fill="#88849C"/>
<path d="M88.4351 26.6392V15.3636H93.8811V35H88.6524V31.4333H88.4479C88.0047 32.5838 87.2675 33.5085 86.2362 34.2074C85.2135 34.9063 83.9649 35.2557 82.4905 35.2557C81.178 35.2557 80.0232 34.9574 79.026 34.3608C78.0289 33.7642 77.249 32.9162 76.6865 31.8168C76.1325 30.7173 75.8513 29.4006 75.8428 27.8665V15.3636H81.2888V26.8949C81.2973 28.054 81.6084 28.9702 82.222 29.6435C82.8357 30.3168 83.6581 30.6534 84.6894 30.6534C85.3456 30.6534 85.9593 30.5043 86.5303 30.206C87.1013 29.8992 87.5615 29.4475 87.911 28.8509C88.2689 28.2543 88.4436 27.5171 88.4351 26.6392Z" fill="#88849C"/>
<path d="M53.0586 35V8.81818H58.5046V18.6619H58.6708C58.9094 18.1335 59.2546 17.5966 59.7063 17.0511C60.1665 16.4972 60.7631 16.0369 61.4961 15.6705C62.2376 15.2955 63.158 15.108 64.2575 15.108C65.6893 15.108 67.0103 15.483 68.2205 16.233C69.4308 16.9744 70.3981 18.0952 71.1225 19.5952C71.8469 21.0866 72.2092 22.9574 72.2092 25.2074C72.2092 27.3977 71.8555 29.2472 71.1481 30.7557C70.4492 32.2557 69.4947 33.3935 68.2844 34.169C67.0827 34.9361 65.7362 35.3196 64.2447 35.3196C63.1879 35.3196 62.2887 35.1449 61.5472 34.7955C60.8143 34.446 60.2134 34.0071 59.7447 33.4787C59.2759 32.9418 58.918 32.4006 58.6708 31.8551H58.4279V35H53.0586ZM58.3896 25.1818C58.3896 26.3494 58.5515 27.3679 58.8754 28.2372C59.1992 29.1065 59.668 29.7841 60.2816 30.2699C60.8952 30.7472 61.641 30.9858 62.5188 30.9858C63.4052 30.9858 64.1552 30.7429 64.7688 30.2571C65.3825 29.7628 65.8469 29.081 66.1623 28.2116C66.4862 27.3338 66.6481 26.3239 66.6481 25.1818C66.6481 24.0483 66.4904 23.0511 66.1751 22.1903C65.8597 21.3295 65.3952 20.6562 64.7816 20.1704C64.168 19.6847 63.4137 19.4418 62.5188 19.4418C61.6325 19.4418 60.8825 19.6761 60.2688 20.1449C59.6637 20.6136 59.1992 21.2784 58.8754 22.1392C58.5515 23 58.3896 24.0142 58.3896 25.1818Z" fill="#88849C"/>
<path fill-rule="evenodd" clip-rule="evenodd" d="M21.961 16.2498L27.8521 22.1409L22.2428 27.7502L16.3517 21.8591L21.961 16.2498ZM15.9209 10.2098L12.2274 6.51629C12.0167 6.30561 12.0167 5.96403 12.2274 5.75335L17.5045 0.476249C17.7152 0.265567 18.0568 0.265567 18.2675 0.476248L36.3081 18.5169C38.3096 20.5184 38.3096 23.7635 36.3081 25.765L28.2829 33.7902L31.9764 37.4837C32.187 37.6944 32.187 38.036 31.9764 38.2467L26.6993 43.5238C26.4886 43.7344 26.147 43.7344 25.9363 43.5238L7.89565 25.4831C5.89416 23.4816 5.89416 20.2365 7.89565 18.235L15.9209 10.2098Z" fill="#88849C"/>
</svg>
