<svg width="68" height="68" viewBox="0 0 68 68" fill="none" xmlns="http://www.w3.org/2000/svg">
<g clip-path="url(#clip0_2124_15193)">
<rect width="68" height="68" fill="white"/>
<rect x="-0.310547" y="-0.310547" width="68.6212" height="68.6212" fill="#302C3F"/>
<path d="M43.878 16C46.56 16 49.14 17.06 51.038 18.962C52.938 20.86 54 23.42 54 26.1V41.9C54 47.48 49.46 52 43.878 52H24.12C18.538 52 14 47.48 14 41.9V26.1C14 20.52 18.518 16 24.12 16H43.878ZM46.14 26.4C45.72 26.378 45.32 26.52 45.018 26.8L36 34C34.84 34.962 33.178 34.962 32 34L23 26.8C22.378 26.34 21.518 26.4 21 26.94C20.46 27.48 20.4 28.34 20.858 28.94L21.12 29.2L30.22 36.3C31.34 37.18 32.698 37.66 34.12 37.66C35.538 37.66 36.92 37.18 38.038 36.3L47.06 29.08L47.22 28.92C47.698 28.34 47.698 27.5 47.198 26.92C46.92 26.622 46.538 26.44 46.14 26.4Z" fill="white"/>
</g>
<defs>
<clipPath id="clip0_2124_15193">
<rect width="68" height="68" fill="white"/>
</clipPath>
</defs>
</svg>
