<svg width="157" height="31" viewBox="0 0 157 31" fill="none" xmlns="http://www.w3.org/2000/svg">
<path d="M146.03 15.8361H151.698C151.647 14.5737 150.822 13.3371 148.864 13.3371C147.087 13.3371 146.108 14.6768 146.03 15.8361ZM152.033 19.1337L154.893 19.9839C154.249 22.1738 152.239 24.0029 149.122 24.0029C145.644 24.0029 142.578 21.5039 142.578 17.2273C142.578 13.1825 145.567 10.5547 148.813 10.5547C152.729 10.5547 155.073 13.0537 155.073 17.1242C155.073 17.6137 155.022 18.129 155.022 18.1805H145.953C146.03 19.8551 147.447 21.066 149.148 21.066C150.745 21.066 151.621 20.2673 152.033 19.1337Z" fill="#D9D7E6"/>
<path d="M131.14 20.087L134.077 19.4429C134.154 20.4477 134.901 21.3751 136.395 21.3751C137.529 21.3751 138.07 20.7826 138.07 20.1127C138.07 19.546 137.683 19.0822 136.704 18.8761L135.03 18.4897C132.582 17.9487 131.475 16.4802 131.475 14.7025C131.475 12.4354 133.484 10.5547 136.215 10.5547C139.822 10.5547 141.033 12.8476 141.187 14.213L138.328 14.8571C138.224 14.11 137.683 13.1567 136.241 13.1567C135.339 13.1567 134.618 13.6978 134.618 14.4191C134.618 15.0374 135.081 15.4239 135.777 15.5527L137.58 15.9391C140.079 16.4544 141.342 17.9744 141.342 19.8293C141.342 21.8904 139.744 24.0029 136.421 24.0029C132.608 24.0029 131.294 21.5297 131.14 20.087Z" fill="#D9D7E6"/>
<path d="M129.069 23.6163H125.643V10.9409H129.069V23.6163ZM125.23 6.79311C125.23 5.60801 126.184 4.65479 127.343 4.65479C128.528 4.65479 129.456 5.60801 129.456 6.79311C129.456 7.92668 128.528 8.87991 127.343 8.87991C126.184 8.87991 125.23 7.92668 125.23 6.79311Z" fill="#D9D7E6"/>
<path d="M123.747 10.8894V14.3417C123.361 14.2644 123.026 14.2386 122.717 14.2386C120.965 14.2386 119.445 15.0888 119.445 17.8196V23.6163H116.019V10.9409H119.342V12.8216C120.115 11.147 121.867 10.8379 122.949 10.8379C123.232 10.8379 123.49 10.8637 123.747 10.8894Z" fill="#D9D7E6"/>
<path d="M104.186 28.5114H100.76V10.9411H104.083V12.4869C104.65 11.5079 106.067 10.6577 107.973 10.6577C111.683 10.6577 113.822 13.4916 113.822 17.253C113.822 21.0917 111.426 23.9256 107.845 23.9256C106.093 23.9256 104.805 23.23 104.186 22.3799V28.5114ZM110.447 17.2788C110.447 15.0374 109.055 13.7235 107.304 13.7235C105.552 13.7235 104.135 15.0374 104.135 17.2788C104.135 19.5202 105.552 20.8598 107.304 20.8598C109.055 20.8598 110.447 19.5459 110.447 17.2788Z" fill="#D9D7E6"/>
<path d="M98.8646 10.8894V14.3417C98.4782 14.2644 98.1433 14.2386 97.8341 14.2386C96.0822 14.2386 94.5622 15.0888 94.5622 17.8196V23.6163H91.1357V10.9409H94.4592V12.8216C95.232 11.147 96.9839 10.8379 98.066 10.8379C98.3494 10.8379 98.607 10.8637 98.8646 10.8894Z" fill="#D9D7E6"/>
<path d="M79.9093 15.8361H85.5771C85.5256 14.5737 84.7012 13.3371 82.7432 13.3371C80.9655 13.3371 79.9866 14.6768 79.9093 15.8361ZM85.912 19.1337L88.7717 19.9839C88.1276 22.1738 86.1181 24.0029 83.0008 24.0029C79.5228 24.0029 76.457 21.5039 76.457 17.2273C76.457 13.1825 79.4455 10.5547 82.6917 10.5547C86.6076 10.5547 88.9521 13.0537 88.9521 17.1242C88.9521 17.6137 88.9005 18.129 88.9005 18.1805H79.832C79.9093 19.8551 81.3262 21.066 83.0266 21.066C84.6239 21.066 85.4998 20.2673 85.912 19.1337Z" fill="#D9D7E6"/>
<path d="M72.5901 7.1543V10.9414H75.1406V13.9815H72.5901V19.2886C72.5901 20.3965 73.1054 20.7571 74.0843 20.7571C74.4966 20.7571 74.9603 20.7056 75.1406 20.6541V23.488C74.8315 23.6168 74.2132 23.7972 73.2084 23.7972C70.7352 23.7972 69.1894 22.3287 69.1894 19.8812V13.9815H66.8965V10.9414H67.5406C68.8802 10.9414 69.4985 10.0655 69.4985 8.93194V7.1543H72.5901Z" fill="#D9D7E6"/>
<path d="M57.2624 16.3253V23.6162H53.8359V10.9409H57.1594V12.5124C57.9322 11.1985 59.4523 10.606 60.8177 10.606C63.9608 10.606 65.4035 12.8473 65.4035 15.6297V23.6162H61.977V16.2223C61.977 14.8053 61.2814 13.6975 59.6326 13.6975C58.1383 13.6975 57.2624 14.8568 57.2624 16.3253Z" fill="#D9D7E6"/>
<path d="M42.6095 15.8361H48.2773C48.2258 14.5737 47.4014 13.3371 45.4434 13.3371C43.6657 13.3371 42.6867 14.6768 42.6095 15.8361ZM48.6122 19.1337L51.4719 19.9839C50.8278 22.1738 48.8183 24.0029 45.701 24.0029C42.223 24.0029 39.1572 21.5039 39.1572 17.2273C39.1572 13.1825 42.1457 10.5547 45.3919 10.5547C49.3078 10.5547 51.6523 13.0537 51.6523 17.1242C51.6523 17.6137 51.6007 18.129 51.6007 18.1805H42.5322C42.6095 19.8551 44.0264 21.066 45.7268 21.066C47.3241 21.066 48.2 20.2673 48.6122 19.1337Z" fill="#D9D7E6"/>
<g clip-path="url(#clip0_3677_6419)">
<path fill-rule="evenodd" clip-rule="evenodd" d="M1.17337 20.8416C1.17337 21.5464 1.88719 22.0268 2.54006 21.7614L11.264 18.2151C11.6382 18.0629 11.8829 17.6993 11.8829 17.2953L11.8829 13.2906C11.8829 12.8866 12.1277 12.523 12.5019 12.3709L21.257 8.81184C21.6312 8.65972 21.876 8.29605 21.876 7.89211L21.876 3.19698C21.876 2.64866 21.4315 2.20417 20.8832 2.20417L12.1593 2.20416C11.6109 2.20416 11.1664 2.64866 11.1664 3.19698L11.1664 10.6146C11.1664 11.1629 10.7219 11.6074 10.1736 11.6074L2.16619 11.6074C1.61787 11.6074 1.17337 12.0519 1.17337 12.6002L1.17337 20.8416Z" fill="#D9D7E6"/>
<path fill-rule="evenodd" clip-rule="evenodd" d="M29.4516 8.99821C29.4516 8.29345 28.7378 7.81308 28.0849 8.07848L19.361 11.6248C18.9868 11.7769 18.7421 12.1406 18.7421 12.5445V16.5493C18.7421 16.9532 18.4974 17.3169 18.1231 17.469L9.36797 21.028C8.99376 21.1801 8.74902 21.5438 8.74902 21.9477V26.6429C8.74902 27.1912 9.19352 27.6357 9.74184 27.6357H18.4657C19.0141 27.6357 19.4586 27.1912 19.4586 26.6429V19.2253C19.4586 18.677 19.9031 18.2325 20.4514 18.2325H28.4588C29.0071 18.2325 29.4516 17.788 29.4516 17.2396V8.99821Z" fill="#D9D7E6"/>
</g>
<defs>
<clipPath id="clip0_3677_6419">
<rect width="29.3411" height="29.3411" fill="white" transform="translate(0.642578 1.04541)"/>
</clipPath>
</defs>
</svg>
