<svg width="32" height="32" viewBox="0 0 32 32" fill="none" xmlns="http://www.w3.org/2000/svg">
<rect width="32" height="32" rx="7" fill="#1D1A27"/>
<mask id="mask0" mask-type="alpha" maskUnits="userSpaceOnUse" x="11" y="5" width="17" height="23">
<path d="M11.0957 15.0092C11.92 12.0251 15.0034 10.2764 17.988 11.1007C20.9722 11.9251 22.7208 15.0084 21.8965 17.9928C20.7013 22.3194 17.5841 25.8518 13.4419 27.5881C18.4791 28.9795 23.9898 26.78 26.5955 21.9933C29.6317 16.4161 27.5653 9.4379 21.9883 6.4017C21.206 5.97304 20.3873 5.64491 19.5586 5.41602C15.3934 7.11236 12.2616 10.6661 11.0957 15.0092Z" fill="url(#paint0_linear)"/>
</mask>
<g mask="url(#mask0)">
<rect x="4.12988" y="4.13232" width="24.7359" height="24.7359" fill="url(#paint1_linear)"/>
</g>
<mask id="mask1" mask-type="alpha" maskUnits="userSpaceOnUse" x="5" y="5" width="17" height="23">
<path d="M11.0038 26.6003C11.7938 27.031 12.6048 27.3569 13.434 27.586L13.4417 27.5881C17.584 25.8518 20.7011 22.3194 21.8964 17.9928C21.072 20.9772 17.9884 22.7259 15.0043 21.9016C12.0196 21.077 10.271 17.9936 11.0956 15.0092C12.2612 10.6661 15.3933 7.11236 19.5585 5.41602C14.523 4.01662 9.00458 6.21405 6.39678 11.0087C3.36832 16.588 5.42656 23.5641 11.0038 26.6003Z" fill="url(#paint2_linear)"/>
</mask>
<g mask="url(#mask1)">
<rect x="4.12988" y="4.13232" width="24.7359" height="24.7359" fill="url(#paint3_linear)"/>
</g>
<defs>
<linearGradient id="paint0_linear" x1="16.1692" y1="7.00356" x2="22.2291" y2="25.8432" gradientUnits="userSpaceOnUse">
<stop stop-color="#E3F1DA"/>
<stop offset="1" stop-color="#CCF3B6"/>
</linearGradient>
<linearGradient id="paint1_linear" x1="4.12988" y1="16.5002" x2="29.2972" y2="16.9487" gradientUnits="userSpaceOnUse">
<stop stop-color="#6F86FF"/>
<stop offset="0.333333" stop-color="#B372CE"/>
<stop offset="1" stop-color="#FF7586"/>
</linearGradient>
<linearGradient id="paint2_linear" x1="9.96373" y1="9.05253" x2="19.2792" y2="23.5232" gradientUnits="userSpaceOnUse">
<stop stop-color="#D0F1BD"/>
<stop offset="1" stop-color="#90E65D"/>
</linearGradient>
<linearGradient id="paint3_linear" x1="4.12988" y1="16.5002" x2="21.4267" y2="20.6636" gradientUnits="userSpaceOnUse">
<stop stop-color="#6F86FF"/>
<stop offset="0.9999" stop-color="#A75CC7"/>
<stop offset="1" stop-color="#FF7586"/>
</linearGradient>
</defs>
</svg>
