<svg width="142" height="31" viewBox="0 0 142 31" fill="none" xmlns="http://www.w3.org/2000/svg">
<path d="M133.53 9.19727C137.265 9.19727 139.713 11.7993 139.713 15.2773C139.713 15.8699 139.61 16.4109 139.507 16.9004H130.284C130.49 18.9614 132.216 20.0435 134.148 20.0435C135.668 20.0435 136.802 19.3994 137.6 18.575L139.455 20.7906C137.832 22.3364 136.158 22.9547 133.994 22.9547C129.665 22.9547 126.806 19.9404 126.806 16.1017C126.806 12.2631 129.614 9.19727 133.53 9.19727ZM133.504 12.0054C131.855 12.0054 130.567 12.9844 130.284 14.6332H136.441V14.6075C136.312 12.9844 135.076 12.0054 133.504 12.0054Z" fill="#88849C"/>
<path d="M116.984 9.50683H118.942V5.92578H122.188V9.50683H125.306V12.1862H122.188V18.0344C122.188 19.2967 122.807 19.9408 124.018 19.9408C124.404 19.9408 125.048 19.8893 125.641 19.5029V22.4398C125.048 22.749 124.25 22.9551 123.142 22.9551C120.462 22.9551 118.839 21.3835 118.839 18.5239V12.1862H116.984V9.50683Z" fill="#88849C"/>
<path d="M102.193 9.50684H105.543V17.0811C105.543 18.9618 106.65 19.9666 108.196 19.9666C110.283 19.9666 111.21 18.0601 111.21 16.2825V9.50684H114.56V22.6459H111.339V20.8425C110.515 22.208 109.227 22.9551 107.294 22.9551C104.203 22.9551 102.193 20.9456 102.193 17.4676V9.50684Z" fill="#88849C"/>
<path d="M91.498 9.50683H93.456V5.92578H96.7022V9.50683H99.8195V12.1862H96.7022V18.0344C96.7022 19.2967 97.3205 19.9408 98.5313 19.9408C98.9178 19.9408 99.5618 19.8893 100.154 19.5029V22.4398C99.5618 22.749 98.7632 22.9551 97.6554 22.9551C94.976 22.9551 93.353 21.3835 93.353 18.5239V12.1862H91.498V9.50683Z" fill="#88849C"/>
<path d="M85.7189 22.6457V9.5066H89.0681V22.6457H85.7189ZM87.3678 3.81299C88.4241 3.81299 89.3 4.58588 89.3 5.69368C89.3 6.80149 88.4241 7.60014 87.3678 7.60014C86.26 7.60014 85.4355 6.80149 85.4355 5.69368C85.4355 4.58588 86.26 3.81299 87.3678 3.81299Z" fill="#88849C"/>
<path d="M74.7168 9.50683H76.6748V5.92578H79.9209V9.50683H83.0382V12.1862H79.9209V18.0344C79.9209 19.2967 80.5392 19.9408 81.7501 19.9408C82.1365 19.9408 82.7806 19.8893 83.3731 19.5029V22.4398C82.7806 22.749 81.9819 22.9551 80.8741 22.9551C78.1948 22.9551 76.5717 21.3835 76.5717 18.5239V12.1862H74.7168V9.50683Z" fill="#88849C"/>
<path d="M68.1807 22.9547C65.8105 22.9547 63.7753 21.8469 62.7705 19.9919L65.0376 18.3173C65.759 19.4509 66.7638 20.2496 68.1807 20.2496C69.4173 20.2496 70.1645 19.8116 70.1645 19.116C70.1645 18.2916 69.4689 17.9567 67.3305 17.2353C64.6512 16.3336 63.2085 15.2773 63.2085 13.1132C63.2085 10.8461 65.4241 9.19727 68.258 9.19727C70.4221 9.19727 72.1997 10.2278 73.0499 11.7993L70.8085 13.4224C70.2675 12.5207 69.4431 11.8766 68.2065 11.8766C67.1502 11.8766 66.3516 12.3661 66.3516 13.0875C66.3516 13.7831 67.0472 14.1438 69.0824 14.8651C71.5814 15.7668 73.3076 16.6428 73.3076 19.0387C73.3076 21.2543 71.2208 22.9547 68.1807 22.9547Z" fill="#88849C"/>
<path d="M48.0059 9.50642H51.2262V11.3098C52.0506 9.94439 53.3388 9.19727 55.271 9.19727C58.3626 9.19727 60.3721 11.2068 60.3721 14.6848V22.6455H57.0229V15.0712C57.0229 13.1905 55.9151 12.1858 54.3693 12.1858C52.2825 12.1858 51.355 14.0665 51.355 15.8699V22.6455H48.0059V9.50642Z" fill="#88849C"/>
<path d="M40.8352 22.6457V9.5066H44.1843V22.6457H40.8352ZM42.484 3.81299C43.5403 3.81299 44.4162 4.58588 44.4162 5.69368C44.4162 6.80149 43.5403 7.60014 42.484 7.60014C41.3762 7.60014 40.5518 6.80149 40.5518 5.69368C40.5518 4.58588 41.3762 3.81299 42.484 3.81299Z" fill="#88849C"/>
<path fill-rule="evenodd" clip-rule="evenodd" d="M9.00023 1.42552C4.21883 3.74286 0.921875 8.64278 0.921875 14.3127C0.921875 22.2175 7.32991 28.6255 15.2346 28.6255C20.9047 28.6255 25.8047 25.3284 28.122 20.5469H15.2473L15.2343 20.5469C11.8127 20.5469 9.03491 17.7903 9.00055 14.3769H9.00023V14.3128V1.42552ZM29.3496 16.6974C29.4797 15.9219 29.5474 15.1252 29.5474 14.3127C29.5474 6.40804 23.1393 0 15.2346 0C14.422 0 13.6253 0.0677164 12.8496 0.197814V8.55111C13.5842 8.24674 14.3896 8.07876 15.2343 8.07876C18.6772 8.07876 21.4683 10.8698 21.4683 14.3128C21.4683 15.1575 21.3004 15.9629 20.996 16.6974H29.3496Z" fill="#88849C"/>
</svg>
