<svg width="630" height="631" viewBox="0 0 630 631" fill="none" xmlns="http://www.w3.org/2000/svg">
<g clip-path="url(#clip0_3594_6316)">
<g filter="url(#filter0_d_3594_6316)">
<g opacity="0.64">
<rect x="251.539" y="48.9824" width="122.532" height="122.532" rx="21.0169" fill="#1D1A27"/>
<rect x="251.943" y="49.3866" width="121.723" height="121.723" rx="20.6127" stroke="white" stroke-opacity="0.16" stroke-width="0.808343"/>
</g>
<path d="M317.563 138.877H306.241V110.653H298.528V101.464H306.241V94.9253C306.241 87.177 309.652 81.62 320.943 81.62C323.331 81.62 327.08 82.1013 327.08 82.1013V90.6339H323.142C319.13 90.6339 317.563 91.8543 317.563 95.2285V101.464H326.93L326.096 110.653H317.563L317.563 138.877Z" fill="white"/>
<g opacity="0.64">
<rect x="229.093" y="208.982" width="159.301" height="159.301" rx="21.0169" fill="#1D1A27"/>
<rect x="229.497" y="209.387" width="158.493" height="158.493" rx="20.6127" stroke="white" stroke-opacity="0.16" stroke-width="0.808343"/>
</g>
<mask id="mask0_3594_6316" style="mask-type:alpha" maskUnits="userSpaceOnUse" x="287" y="244" width="68" height="91">
<path d="M287.096 282.494C290.399 270.536 302.755 263.529 314.715 266.832C326.673 270.135 333.68 282.491 330.377 294.45C325.587 311.787 313.096 325.942 296.497 332.9C316.682 338.476 338.765 329.662 349.207 310.481C361.373 288.131 353.093 260.169 330.744 248.002C327.61 246.284 324.329 244.969 321.008 244.052C304.317 250.85 291.768 265.09 287.096 282.494Z" fill="url(#paint0_linear_3594_6316)"/>
</mask>
<g mask="url(#mask0_3594_6316)">
<rect x="259.183" y="238.907" width="99.1215" height="99.1215" fill="url(#paint1_linear_3594_6316)"/>
</g>
<mask id="mask1_3594_6316" style="mask-type:alpha" maskUnits="userSpaceOnUse" x="262" y="242" width="69" height="91">
<path d="M286.727 328.942C289.893 330.668 293.143 331.974 296.466 332.892L296.497 332.9C313.096 325.942 325.587 311.787 330.376 294.45C327.073 306.409 314.716 313.416 302.758 310.113C290.798 306.809 283.791 294.453 287.095 282.494C291.766 265.091 304.317 250.85 321.008 244.052C300.83 238.445 278.716 247.25 268.266 266.463C256.13 288.821 264.378 316.775 286.727 328.942Z" fill="url(#paint2_linear_3594_6316)"/>
</mask>
<g mask="url(#mask1_3594_6316)">
<rect x="259.183" y="238.907" width="99.1215" height="99.1215" fill="url(#paint3_linear_3594_6316)"/>
</g>
<g opacity="0.64">
<rect x="397.288" y="102.88" width="117.581" height="117.581" rx="21.0169" fill="#1D1A27"/>
<rect x="397.692" y="103.285" width="116.773" height="116.773" rx="20.6127" stroke="white" stroke-opacity="0.16" stroke-width="0.808343"/>
</g>
<path d="M480.219 162.261C480.219 160.563 480.007 158.864 479.794 157.272H456.438V166.826H469.815C469.284 169.799 467.585 172.666 464.931 174.258V180.416H473C477.671 176.063 480.219 169.693 480.219 162.261V162.261Z" fill="white"/>
<path d="M456.542 186.361C463.23 186.361 468.857 184.131 472.998 180.416L464.929 174.258C462.7 175.744 459.939 176.7 456.542 176.7C450.172 176.7 444.545 172.453 442.741 166.402H434.566V172.772C438.813 181.053 447.2 186.361 456.542 186.361Z" fill="white"/>
<path d="M442.741 166.402C441.573 163.429 441.573 160.032 442.741 156.847V150.477H434.567C431.063 157.378 431.063 165.552 434.567 172.666L442.741 166.402Z" fill="white"/>
<path d="M456.542 146.761C460.046 146.761 463.443 148.035 466.097 150.477L473.21 143.364C468.751 139.223 462.806 136.782 456.754 136.994C447.412 136.994 438.813 142.196 434.778 150.583L442.953 156.953C444.652 151.008 450.172 146.761 456.542 146.761Z" fill="white"/>
<g opacity="0.64">
<rect x="151.052" y="75.3954" width="73.8528" height="73.8528" rx="21.0169" fill="#1D1A27"/>
<rect x="151.456" y="75.7996" width="73.0445" height="73.0445" rx="20.6127" stroke="white" stroke-opacity="0.16" stroke-width="0.808343"/>
</g>
<path d="M180.871 127.784C195.236 127.784 203.067 115.863 203.067 105.588C203.067 105.239 203.067 104.89 203.067 104.591C204.613 103.493 205.91 102.097 206.957 100.551C205.56 101.149 204.064 101.598 202.468 101.798C204.064 100.85 205.311 99.3038 205.91 97.4583C204.413 98.3561 202.717 99.0045 200.972 99.3536C199.525 97.8074 197.53 96.8597 195.286 96.8597C190.946 96.8597 187.455 100.351 187.455 104.691C187.455 105.289 187.505 105.888 187.654 106.486C181.17 106.137 175.434 103.045 171.544 98.3062C170.895 99.4534 170.496 100.8 170.496 102.197C170.496 104.89 171.893 107.284 173.988 108.681C172.691 108.631 171.494 108.282 170.446 107.683C170.446 107.733 170.446 107.733 170.446 107.783C170.446 111.574 173.14 114.716 176.731 115.414C176.083 115.614 175.384 115.714 174.686 115.714C174.187 115.714 173.689 115.664 173.24 115.564C174.237 118.656 177.13 120.901 180.522 121.001C177.828 123.095 174.487 124.342 170.845 124.342C170.197 124.342 169.599 124.293 169 124.243C172.392 126.487 176.482 127.784 180.871 127.784Z" fill="white"/>
<g opacity="0.64">
<rect x="78.3374" y="132.025" width="91.3263" height="91.3263" rx="21.0169" fill="#1D1A27"/>
<rect x="78.7416" y="132.429" width="90.518" height="90.518" rx="20.6127" stroke="white" stroke-opacity="0.16" stroke-width="0.808343"/>
</g>
<path fill-rule="evenodd" clip-rule="evenodd" d="M109.145 155.721H138.833C141.337 155.721 143.375 157.759 143.397 160.263V199.655L138.612 195.512L135.931 193.053L133.095 190.438L134.269 194.493H109.145C106.642 194.493 104.604 192.454 104.604 189.951V160.263C104.604 157.759 106.642 155.721 109.145 155.721ZM128.819 182.64C129.484 183.459 130.281 184.412 130.281 184.412C134.92 184.265 136.834 181.394 137.023 181.111C137.033 181.095 137.039 181.088 137.039 181.089C137.039 174.021 133.848 168.283 133.848 168.283C130.68 165.913 127.645 165.979 127.645 165.979L127.335 166.333C131.101 167.463 132.851 169.125 132.851 169.125C130.547 167.884 128.287 167.264 126.183 167.02C124.587 166.843 123.059 166.887 121.707 167.065C121.591 167.065 121.492 167.081 121.38 167.101C121.364 167.103 121.348 167.106 121.331 167.109C120.555 167.198 118.672 167.463 116.301 168.505C115.482 168.859 114.994 169.125 114.994 169.125C114.994 169.125 116.811 167.375 120.799 166.245L120.577 165.979C120.577 165.979 117.564 165.913 114.374 168.283C114.374 168.283 111.184 174.021 111.184 181.089C111.184 181.089 113.045 184.279 117.941 184.434C117.941 184.434 118.761 183.459 119.425 182.618C116.612 181.776 115.548 180.025 115.548 180.025C115.548 180.025 115.77 180.18 116.168 180.402C116.182 180.402 116.196 180.41 116.215 180.422C116.226 180.429 116.24 180.438 116.257 180.446C116.29 180.468 116.324 180.485 116.357 180.502C116.39 180.518 116.423 180.535 116.457 180.557C117.01 180.867 117.564 181.111 118.074 181.31C118.982 181.687 120.068 182.019 121.331 182.263C122.992 182.573 124.942 182.684 127.069 182.285C128.11 182.086 129.174 181.798 130.281 181.333C131.057 181.045 131.921 180.624 132.829 180.025C132.829 180.025 131.721 181.82 128.819 182.64ZM125.806 176.591C125.806 175.24 126.803 174.154 128.066 174.154C129.306 174.154 130.325 175.24 130.325 176.591C130.325 177.942 129.328 179.028 128.066 179.028C126.825 179.028 125.806 177.942 125.806 176.591ZM117.719 176.591C117.719 175.24 118.716 174.154 119.979 174.154C121.242 174.154 122.261 175.24 122.239 176.591C122.239 177.942 121.242 179.028 119.979 179.028C118.738 179.028 117.719 177.942 117.719 176.591Z" fill="white"/>
<g opacity="0.64">
<rect x="60.6489" y="246.542" width="119.119" height="119.119" rx="21.0169" fill="#1D1A27"/>
<rect x="61.0531" y="246.946" width="118.311" height="118.311" rx="20.6127" stroke="white" stroke-opacity="0.16" stroke-width="0.808343"/>
</g>
<path d="M121.971 328.41L108.74 328.168C104.457 328.084 100.162 328.252 95.9625 327.379C89.5736 326.073 89.121 319.674 88.6473 314.306C87.9947 306.759 88.2474 299.076 89.4788 291.592C90.1735 287.392 92.9101 284.887 97.1414 284.614C111.424 283.624 125.802 283.74 140.054 284.203C141.559 284.245 143.074 284.477 144.559 284.74C151.884 286.024 152.063 293.276 152.537 299.381C153.011 305.549 152.811 311.748 151.905 317.874C151.179 322.947 149.79 327.2 143.927 327.61C136.58 328.147 129.402 328.578 122.034 328.442C122.034 328.41 121.992 328.41 121.971 328.41V328.41ZM114.193 315.569C119.729 312.39 125.16 309.264 130.665 306.107C125.118 302.928 119.697 299.802 114.193 296.644V315.569Z" fill="white"/>
<g opacity="0.64">
<rect x="115.617" y="391.89" width="113.976" height="113.976" rx="21.0169" fill="#1D1A27"/>
<rect x="116.021" y="392.294" width="113.168" height="113.168" rx="20.6127" stroke="white" stroke-opacity="0.16" stroke-width="0.808343"/>
</g>
<path fill-rule="evenodd" clip-rule="evenodd" d="M203.339 448.878C203.339 465.852 189.579 479.612 172.605 479.612C155.631 479.612 141.871 465.852 141.871 448.878C141.871 431.904 155.631 418.144 172.605 418.144C189.579 418.144 203.339 431.904 203.339 448.878ZM188.633 444.403C191.09 444.403 193.107 446.384 193.107 448.878C193.107 450.711 192.007 452.288 190.467 452.986C190.54 453.425 190.577 453.902 190.577 454.343C190.577 461.274 182.545 466.849 172.642 466.849C162.74 466.849 154.708 461.237 154.708 454.343C154.708 453.866 154.744 453.425 154.818 452.986C153.277 452.288 152.177 450.748 152.177 448.915C152.177 446.457 154.158 444.44 156.651 444.44C157.812 444.439 158.929 444.885 159.769 445.687C162.886 443.45 167.177 442.019 171.945 441.873L174.22 431.163C174.256 430.943 174.366 430.76 174.549 430.65C174.696 430.54 174.916 430.503 175.136 430.54L182.581 432.117C183.094 431.053 184.195 430.32 185.442 430.32C187.202 430.32 188.633 431.75 188.633 433.51C188.633 435.271 187.202 436.701 185.442 436.701C183.718 436.701 182.325 435.344 182.251 433.657L175.576 432.227L173.522 441.836C178.217 442.019 182.435 443.45 185.515 445.65C186.322 444.88 187.423 444.403 188.633 444.403ZM165.564 448.878C163.803 448.878 162.373 450.308 162.373 452.068C162.373 453.829 163.803 455.296 165.564 455.259C167.324 455.259 168.755 453.829 168.755 452.068C168.755 450.308 167.324 448.878 165.564 448.878ZM172.642 462.888C173.852 462.888 178.034 462.741 180.234 460.541C180.527 460.21 180.527 459.697 180.234 459.367C179.904 459.037 179.391 459.037 179.06 459.367C177.703 460.761 174.733 461.237 172.642 461.237C170.552 461.237 167.618 460.761 166.224 459.367C165.894 459.037 165.38 459.037 165.05 459.367C164.72 459.697 164.72 460.21 165.05 460.541C167.214 462.704 171.395 462.888 172.642 462.888ZM176.456 452.105C176.456 453.866 177.887 455.296 179.647 455.296C181.408 455.296 182.838 453.829 182.838 452.105C182.838 450.345 181.408 448.915 179.647 448.915C177.887 448.915 176.456 450.345 176.456 452.105Z" fill="white"/>
<g opacity="0.64">
<rect x="255.649" y="439.982" width="119.119" height="119.119" rx="21.0169" fill="#1D1A27"/>
<rect x="256.053" y="440.387" width="118.311" height="118.311" rx="20.6127" stroke="white" stroke-opacity="0.16" stroke-width="0.808343"/>
</g>
<path fill-rule="evenodd" clip-rule="evenodd" d="M346.774 478.982L326.312 518.982H307.093L315.656 502.405H315.272C308.208 511.575 297.667 517.612 282.649 518.982V502.634C282.649 502.634 292.257 502.067 297.905 496.129H282.649V478.983H299.795V493.085L300.18 493.083L307.186 478.983H320.153V492.995L320.538 492.995L327.807 478.982H346.774Z" fill="white"/>
<g opacity="0.64">
<rect x="402.093" y="458.982" width="73.7114" height="73.7114" rx="21.0169" fill="#1D1A27"/>
<rect x="402.497" y="459.387" width="72.9031" height="72.9031" rx="20.6127" stroke="white" stroke-opacity="0.16" stroke-width="0.808343"/>
</g>
<g opacity="0.64">
<rect x="460.093" y="389.982" width="92.4965" height="92.4965" rx="21.0169" fill="#1D1A27"/>
<rect x="460.497" y="390.387" width="91.6882" height="91.6882" rx="20.6127" stroke="white" stroke-opacity="0.16" stroke-width="0.808343"/>
</g>
<path fill-rule="evenodd" clip-rule="evenodd" d="M522.17 438.365L515.873 444.661H505.981L500.585 450.057V444.661H492.49V418.58H522.17V438.365ZM488.892 414.982L487.093 422.178V454.553H495.188V459.051H499.684L504.182 454.553H511.376L525.765 440.166V414.982H488.892V414.982Z" fill="white"/>
<path fill-rule="evenodd" clip-rule="evenodd" d="M502.382 436.568H505.98V425.774H502.382V436.568ZM512.274 436.568H515.872V425.774H512.274V436.568Z" fill="white"/>
<path fill-rule="evenodd" clip-rule="evenodd" d="M423.093 494.999C423.093 486.371 429.852 479.982 438.574 479.982C447.295 479.982 454.054 486.371 454.054 494.999C454.054 503.627 447.295 510.015 438.574 510.015C437.007 510.015 435.503 509.81 434.092 509.42C433.817 509.345 433.528 509.367 433.266 509.483L430.195 510.837C429.391 511.189 428.485 510.619 428.457 509.741L428.373 506.988C428.36 506.648 428.208 506.334 427.955 506.106C424.943 503.412 423.093 499.512 423.093 494.999ZM433.827 492.177L429.279 499.391C428.84 500.082 429.694 500.864 430.345 500.369L435.232 496.659C435.562 496.41 436.017 496.407 436.35 496.656L439.966 499.369C441.05 500.182 442.601 499.895 443.324 498.749L447.868 491.538C448.308 490.847 447.454 490.065 446.803 490.56L441.919 494.267C441.589 494.516 441.134 494.519 440.801 494.27L437.185 491.557C436.101 490.744 434.55 491.031 433.827 492.177Z" fill="white"/>
<g opacity="0.64">
<rect x="450.27" y="246.475" width="119.119" height="119.119" rx="21.0169" fill="#1D1A27"/>
<rect x="450.674" y="246.88" width="118.311" height="118.311" rx="20.6127" stroke="white" stroke-opacity="0.16" stroke-width="0.808343"/>
</g>
<path d="M506.94 275.694C503.653 276.062 498.723 277.593 495.917 279.123C488.38 283.175 483.279 289.494 480.729 297.91C480.219 299.553 479.624 304.03 479.652 306.127C479.652 307.969 480.219 312.474 480.559 313.551C480.729 314.061 481.097 315.28 481.409 316.215C481.919 317.802 484.384 322.789 484.81 323.129C484.895 323.214 485.348 323.781 485.773 324.432C486.821 325.991 489.57 328.768 491.639 330.355C493.225 331.573 497.702 334.152 498.269 334.18C498.411 334.18 498.439 333.103 498.354 331.686C498.156 328.541 498.751 324.262 500.026 319.898C500.253 319.162 500.423 318.198 500.423 317.773C500.423 317.348 500.536 316.895 500.678 316.753C500.819 316.583 501.074 315.761 501.216 314.911C501.386 314.061 501.67 312.758 501.868 312.021C502.151 310.916 502.123 310.491 501.726 309.301C501.159 307.487 501.131 304.54 501.698 303.124C503.03 299.752 504.503 298.476 506.997 298.476C510 298.476 511.445 300.743 510.879 304.54C510.624 306.269 509.915 308.989 509.462 309.839C509.349 310.094 509.15 310.803 509.065 311.398C508.952 312.021 508.725 312.899 508.584 313.381C508.187 314.486 508.952 316.64 509.972 317.462C510.935 318.227 512.947 318.453 514.789 318.028C516.093 317.745 516.631 317.405 517.991 316.101C519.606 314.515 520.825 312.673 520.825 311.794C521.021 311.398 520.966 311.199 521.136 311.029C521.93 310.236 522.355 304.059 521.76 301.452C521.108 298.59 519.096 295.784 516.489 294.141C513.882 292.469 508.499 291.987 505.183 293.121C502.86 293.914 500.791 295.246 499.459 296.805C498.269 298.193 497.022 300.46 497.022 301.253C497.022 301.537 496.881 301.905 496.711 302.075C496.541 302.245 496.342 303.322 496.257 304.484C496.116 306.212 496.229 307.006 496.739 308.706C497.079 309.868 497.702 311.228 498.071 311.738C498.836 312.758 498.836 313.154 498.127 315.875C497.929 316.612 497.589 317.292 497.391 317.377C495.606 318.057 491.979 313.778 490.76 309.527C490.307 307.912 490.278 302.16 490.732 300.46C490.93 299.752 491.27 298.788 491.497 298.278C491.724 297.796 491.922 297.315 491.922 297.201C491.922 297.088 492.489 296.124 493.197 295.076C496.881 289.522 502.86 286.575 510.425 286.575C512.154 286.575 513.939 286.689 514.421 286.83C518.331 288.049 519.38 288.445 520.91 289.352C523.885 291.137 526.039 293.574 528.192 297.655C528.334 297.91 528.532 298.59 528.617 299.156C528.731 299.723 528.929 300.262 529.071 300.347C529.212 300.432 529.326 302.273 529.326 304.455C529.326 308.394 529.042 309.981 527.852 313.211C526.52 316.753 523.092 320.664 519.975 322.194C518.189 323.044 514.846 323.979 513.514 323.979C511.729 323.979 508.215 322.505 507.252 321.315C506.798 320.777 506.373 320.975 506.373 321.74C506.373 322.024 506.26 322.505 506.09 322.789C505.948 323.044 505.693 323.837 505.552 324.546C504.73 328.286 503.568 331.318 501.783 334.152C501.244 335.03 501.698 335.54 503.171 335.738C503.908 335.852 504.9 336.05 505.353 336.192C506.487 336.56 512.636 336.503 514.704 336.135C516.574 335.795 519.606 334.945 520.966 334.378C529.524 330.865 536.013 323.724 538.818 314.628C540.32 309.782 540.405 304.144 539.045 298.476C538.591 296.635 538.45 296.209 537.231 293.376C535.475 289.239 531.507 284.393 527.484 281.418C524.027 278.868 520.626 277.394 515.328 276.119C513.854 275.779 508.612 275.496 506.94 275.694Z" fill="white"/>
</g>
</g>
<defs>
<filter id="filter0_d_3594_6316" x="0.83157" y="0.481864" width="628.374" height="629.754" filterUnits="userSpaceOnUse" color-interpolation-filters="sRGB">
<feFlood flood-opacity="0" result="BackgroundImageFix"/>
<feColorMatrix in="SourceAlpha" type="matrix" values="0 0 0 0 0 0 0 0 0 0 0 0 0 0 0 0 0 0 127 0" result="hardAlpha"/>
<feOffset dy="11.3168"/>
<feGaussianBlur stdDeviation="29.9087"/>
<feColorMatrix type="matrix" values="0 0 0 0 0 0 0 0 0 0 0 0 0 0 0 0 0 0 0.45 0"/>
<feBlend mode="normal" in2="BackgroundImageFix" result="effect1_dropShadow_3594_6316"/>
<feBlend mode="normal" in="SourceGraphic" in2="effect1_dropShadow_3594_6316" result="shape"/>
</filter>
<linearGradient id="paint0_linear_3594_6316" x1="307.426" y1="250.414" x2="331.71" y2="325.908" gradientUnits="userSpaceOnUse">
<stop stop-color="#E3F1DA"/>
<stop offset="1" stop-color="#CCF3B6"/>
</linearGradient>
<linearGradient id="paint1_linear_3594_6316" x1="259.183" y1="288.468" x2="360.033" y2="290.265" gradientUnits="userSpaceOnUse">
<stop stop-color="#6F86FF"/>
<stop offset="0.333333" stop-color="#B372CE"/>
<stop offset="1" stop-color="#FF7586"/>
</linearGradient>
<linearGradient id="paint2_linear_3594_6316" x1="282.56" y1="258.624" x2="319.889" y2="316.611" gradientUnits="userSpaceOnUse">
<stop stop-color="#D0F1BD"/>
<stop offset="1" stop-color="#90E65D"/>
</linearGradient>
<linearGradient id="paint3_linear_3594_6316" x1="259.183" y1="288.468" x2="328.494" y2="305.151" gradientUnits="userSpaceOnUse">
<stop stop-color="#6F86FF"/>
<stop offset="0.9999" stop-color="#A75CC7"/>
<stop offset="1" stop-color="#FF7586"/>
</linearGradient>
<clipPath id="clip0_3594_6316">
<rect width="630" height="631" fill="white"/>
</clipPath>
</defs>
</svg>
