<svg width="165" height="43" viewBox="0 0 165 43" fill="none" xmlns="http://www.w3.org/2000/svg">
<path d="M64.4133 8.7666C66.6514 8.7666 68.7069 9.3033 70.5796 10.3767C72.4752 11.4273 73.9711 12.8775 75.0674 14.7274C76.1636 16.5545 76.7117 18.5871 76.7117 20.8253C76.7117 23.0634 76.1636 25.0961 75.0674 26.9231C73.9711 28.7274 72.4752 30.1548 70.5796 31.2053C68.7069 32.233 66.6514 32.7469 64.4133 32.7469H54.8896V8.7666H64.4133ZM64.4133 28.499C65.8521 28.499 67.1653 28.1678 68.3529 27.5055C69.5405 26.8203 70.4768 25.884 71.162 24.6964C71.87 23.5088 72.224 22.207 72.224 20.791C72.224 19.375 71.87 18.0732 71.162 16.8856C70.4768 15.6752 69.5405 14.7274 68.3529 14.0423C67.1653 13.3571 65.8521 13.0145 64.4133 13.0145H59.3774V28.499H64.4133Z" fill="white"/>
<path d="M93.3117 15.6181H97.5596V32.7469H93.3117V31.0683C92.5123 31.7534 91.633 32.2901 90.6738 32.6784C89.7375 33.0438 88.744 33.2265 87.6934 33.2265C85.9577 33.2265 84.4389 32.8383 83.1372 32.0618C81.8354 31.2853 80.8305 30.2118 80.1225 28.8415C79.4373 27.4712 79.0948 25.9297 79.0948 24.2168C79.0948 22.5039 79.4373 20.9623 80.1225 19.592C80.8305 18.2217 81.8354 17.1483 83.1372 16.3718C84.4389 15.5724 85.9577 15.1728 87.6934 15.1728C88.744 15.1728 89.7375 15.3669 90.6738 15.7551C91.633 16.1206 92.5123 16.6458 93.3117 17.331V15.6181ZM88.2415 29.1499C89.1779 29.1499 90.0229 28.9443 90.7766 28.5332C91.5531 28.0993 92.1583 27.5055 92.5923 26.7518C93.049 25.9982 93.2774 25.1417 93.2774 24.1825C93.2774 22.7437 92.7864 21.5675 91.8043 20.654C90.8451 19.7404 89.6575 19.2837 88.2415 19.2837C86.8027 19.2837 85.6151 19.7519 84.6788 20.6882C83.7652 21.6018 83.3085 22.778 83.3085 24.2168C83.3085 25.6556 83.7652 26.8432 84.6788 27.7796C85.6151 28.6931 86.8027 29.1499 88.2415 29.1499Z" fill="white"/>
<path d="M112.446 15.2755L112.138 19.2837C112.001 19.238 111.761 19.2152 111.419 19.2152C110.003 19.2152 108.827 19.6263 107.89 20.4484C106.977 21.2706 106.52 22.3897 106.52 23.8057V32.7469H102.272V15.6181H106.52V18.4958C106.908 17.5822 107.57 16.8171 108.507 16.2005C109.443 15.5839 110.574 15.2755 111.898 15.2755H112.446Z" fill="white"/>
<path d="M132.483 32.7469H127.173L122.377 26.3407L119.876 29.0813V32.7469H115.628V8.7666H119.876V22.8465L126.317 15.6181H132.243L125.255 23.2233L132.483 32.7469Z" fill="white"/>
<path d="M156.986 20.7225L164.762 32.7469H159.418L153.868 24.1483L148.318 32.7469H142.974L150.751 20.7225L143.008 8.7666H148.353L153.868 17.2967L159.384 8.7666H164.728L156.986 20.7225Z" fill="white"/>
<path d="M11.3516 18.7238C12.8866 13.1669 18.6283 9.91056 24.1862 11.4456C29.7431 12.9806 32.9994 18.7223 31.4644 24.2797C29.2386 32.3365 23.434 38.9144 15.7205 42.1476C25.1006 44.7386 35.3624 40.6428 40.2147 31.7293C45.8686 21.3436 42.0205 8.34913 31.6353 2.69525C30.1785 1.89701 28.654 1.28598 27.1108 0.859741C19.3545 4.0186 13.5226 10.6363 11.3516 18.7238Z" fill="url(#paint0_linear)"/>
<path d="M11.18 40.3084C12.6512 41.1105 14.1613 41.7172 15.7054 42.1439L15.7198 42.1478C23.4334 38.9145 29.238 32.3366 31.4637 24.2799C29.9287 29.8373 24.1865 33.0936 18.6296 31.5586C13.0717 30.0231 9.81539 24.2813 11.3509 18.7239C13.5214 10.6365 19.3539 4.01875 27.1101 0.859893C17.7334 -1.74601 7.45716 2.34596 2.60103 11.2744C-3.03845 21.6639 0.794324 34.6545 11.18 40.3084Z" fill="url(#paint1_linear)"/>
<defs>
<linearGradient id="paint0_linear" x1="11.3516" y1="7.61364" x2="46.2469" y2="38.9862" gradientUnits="userSpaceOnUse">
<stop stop-color="#B372CE"/>
<stop offset="1" stop-color="#F57591"/>
</linearGradient>
<linearGradient id="paint1_linear" x1="3.07353" y1="10.2041" x2="26.5902" y2="34.5783" gradientUnits="userSpaceOnUse">
<stop stop-color="#7582F9"/>
<stop offset="1" stop-color="#9B66D4"/>
</linearGradient>
</defs>
</svg>
