<svg width="194" height="31" viewBox="0 0 194 31" fill="none" xmlns="http://www.w3.org/2000/svg">
<path d="M182.375 12.0499C183.474 10.7274 184.831 10.0576 186.446 10.0404C187.322 10.0232 188.095 10.1692 188.764 10.4784C189.434 10.7704 189.975 11.174 190.387 11.6892C190.885 12.2904 191.229 12.9946 191.418 13.8018C191.607 14.5919 191.701 15.4764 191.701 16.4554V23.9009H188.043V16.7388C188.043 16.2579 187.991 15.8027 187.888 15.3733C187.803 14.9268 187.648 14.5489 187.425 14.2398C187.201 13.9134 186.901 13.673 186.523 13.5184C186.162 13.3638 185.75 13.2865 185.286 13.2865C184.702 13.3037 184.204 13.4325 183.792 13.673C183.397 13.9134 183.096 14.2226 182.89 14.6005C182.684 14.9611 182.538 15.3733 182.452 15.8371C182.384 16.2836 182.349 16.7388 182.349 17.2025V23.9009H178.717V10.3238H182.195L182.375 12.0499Z" fill="#D9D7E6"/>
<path d="M169.506 24.1071C167.308 24.1071 165.616 23.4888 164.431 22.2522C163.246 20.9984 162.653 19.2637 162.653 17.048C162.653 15.9832 162.808 15.0214 163.117 14.1626C163.443 13.2867 163.89 12.5395 164.457 11.9212C165.041 11.3029 165.753 10.8392 166.595 10.53C167.454 10.2037 168.424 10.0405 169.506 10.0405C170.571 10.0405 171.524 10.2037 172.366 10.53C173.225 10.8392 173.946 11.3029 174.53 11.9212C175.131 12.5395 175.586 13.2867 175.895 14.1626C176.222 15.0214 176.385 15.9832 176.385 17.048C176.385 19.2808 175.784 21.0155 174.582 22.2522C173.396 23.4888 171.705 24.1071 169.506 24.1071ZM169.506 13.2867C168.39 13.2867 167.565 13.6473 167.033 14.3687C166.501 15.0901 166.234 15.9918 166.234 17.0738C166.234 18.173 166.501 19.0833 167.033 19.8047C167.565 20.526 168.39 20.8867 169.506 20.8867C170.623 20.8867 171.438 20.526 171.954 19.8047C172.469 19.0833 172.727 18.173 172.727 17.0738C172.727 15.9918 172.469 15.0901 171.954 14.3687C171.438 13.6473 170.623 13.2867 169.506 13.2867Z" fill="#D9D7E6"/>
<path d="M158.284 4.01172C158.954 4.01172 159.495 4.20923 159.907 4.60427C160.32 4.9993 160.526 5.52314 160.526 6.17581C160.526 6.86282 160.32 7.40384 159.907 7.79887C159.495 8.17673 158.954 8.36565 158.284 8.36565C157.632 8.36565 157.091 8.17673 156.661 7.79887C156.249 7.40384 156.043 6.86282 156.043 6.17581C156.043 5.52314 156.249 4.9993 156.661 4.60427C157.091 4.20923 157.632 4.01172 158.284 4.01172ZM160.114 23.9007H156.481V10.3236H160.114V23.9007Z" fill="#D9D7E6"/>
<path d="M151.076 13.4926V18.9801C151.076 20.148 151.669 20.732 152.854 20.732H154.194V23.9008H152.493C150.69 23.9695 149.393 23.626 148.603 22.8703C147.83 22.1146 147.444 20.9724 147.444 19.4438V13.4926H145.383V10.3237H147.444V6.63965H151.076V10.3237H154.323V13.4926H151.076Z" fill="#D9D7E6"/>
<path d="M140.147 22.2264C139.632 22.9134 139.005 23.4029 138.266 23.6949C137.528 23.9869 136.669 24.1243 135.69 24.1071C134.436 24.0727 133.388 23.7207 132.547 23.0508C132.1 22.673 131.748 22.2264 131.491 21.7111C131.25 21.1787 131.13 20.5518 131.13 19.8304C131.147 19.0919 131.31 18.4392 131.619 17.8725C131.946 17.2885 132.435 16.8076 133.088 16.4297C133.637 16.1378 134.256 15.9317 134.943 15.8114C135.647 15.6912 136.411 15.6311 137.236 15.6311H140.018C140.07 14.7895 139.872 14.1626 139.426 13.7504C138.996 13.321 138.386 13.0977 137.596 13.0806C137.339 13.0806 137.073 13.0977 136.798 13.1321C136.523 13.1664 136.265 13.2351 136.025 13.3382C135.802 13.4412 135.604 13.5872 135.432 13.7762C135.278 13.9479 135.175 14.1626 135.123 14.4202H131.388C131.473 13.5958 131.697 12.9088 132.057 12.3592C132.435 11.7924 132.908 11.3373 133.474 10.9938C134.041 10.6503 134.668 10.4098 135.355 10.2724C136.059 10.1178 136.781 10.0405 137.519 10.0405C137.931 10.0405 138.352 10.0663 138.781 10.1178C139.211 10.1522 139.632 10.238 140.044 10.3754C140.456 10.4957 140.843 10.6674 141.203 10.8907C141.581 11.0968 141.933 11.3716 142.259 11.7151C142.843 12.385 143.204 13.1578 143.342 14.0338C143.496 14.8925 143.565 15.7341 143.548 16.5586V23.901H140.224L140.147 22.2264ZM140.018 17.8982H137.365C137.107 17.8982 136.815 17.924 136.489 17.9755C136.162 18.027 135.879 18.1215 135.638 18.2589C135.398 18.3963 135.192 18.5766 135.02 18.7999C134.866 19.0232 134.788 19.298 134.788 19.6243C134.788 19.8991 134.84 20.1396 134.943 20.3457C135.063 20.5518 135.209 20.7236 135.381 20.861C135.57 20.9984 135.793 21.11 136.051 21.1959C136.308 21.2646 136.566 21.2989 136.823 21.2989C137.322 21.3161 137.785 21.2302 138.215 21.0413C138.661 20.8524 139.048 20.5862 139.374 20.2427C139.58 19.9678 139.735 19.6587 139.838 19.3152C139.958 18.9545 140.018 18.4822 140.018 17.8982Z" fill="#D9D7E6"/>
<path d="M129.281 12.9515L122.686 20.732H129.281V23.9008H117.945V21.2472L124.489 13.4668H117.945V10.3237H129.281V12.9515Z" fill="#D9D7E6"/>
<path d="M113.576 4.01172C114.246 4.01172 114.787 4.20923 115.199 4.60427C115.612 4.9993 115.818 5.52314 115.818 6.17581C115.818 6.86282 115.612 7.40384 115.199 7.79887C114.787 8.17673 114.246 8.36565 113.576 8.36565C112.924 8.36565 112.383 8.17673 111.953 7.79887C111.541 7.40384 111.335 6.86282 111.335 6.17581C111.335 5.52314 111.541 4.9993 111.953 4.60427C112.383 4.20923 112.924 4.01172 113.576 4.01172ZM115.406 23.9007H111.773V10.3236H115.406V23.9007Z" fill="#D9D7E6"/>
<path d="M99.4513 12.0499C100.551 10.7274 101.907 10.0576 103.522 10.0404C104.398 10.0232 105.171 10.1692 105.841 10.4784C106.51 10.7704 107.051 11.174 107.464 11.6892C107.962 12.2904 108.305 12.9946 108.494 13.8018C108.683 14.5919 108.777 15.4764 108.777 16.4554V23.9009H105.119V16.7388C105.119 16.2579 105.068 15.8027 104.965 15.3733C104.879 14.9268 104.724 14.5489 104.501 14.2398C104.278 13.9134 103.977 13.673 103.599 13.5184C103.238 13.3638 102.826 13.2865 102.363 13.2865C101.779 13.3037 101.28 13.4325 100.868 13.673C100.473 13.9134 100.173 14.2226 99.9666 14.6005C99.7605 14.9611 99.6145 15.3733 99.5286 15.8371C99.4599 16.2836 99.4255 16.7388 99.4255 17.2025V23.9009H95.793V10.3238H99.271L99.4513 12.0499Z" fill="#D9D7E6"/>
<path d="M89.5522 22.2264C89.0369 22.9134 88.41 23.4029 87.6715 23.6949C86.933 23.9869 86.0742 24.1243 85.0952 24.1071C83.8414 24.0727 82.7937 23.7207 81.9521 23.0508C81.5056 22.673 81.1535 22.2264 80.8958 21.7111C80.6554 21.1787 80.5352 20.5518 80.5352 19.8304C80.5523 19.0919 80.7155 18.4392 81.0247 17.8725C81.351 17.2885 81.8405 16.8076 82.4931 16.4297C83.0427 16.1378 83.6611 15.9317 84.3481 15.8114C85.0523 15.6912 85.8166 15.6311 86.641 15.6311H89.4234C89.4749 14.7895 89.2774 14.1626 88.8308 13.7504C88.4014 13.321 87.7917 13.0977 87.0017 13.0806C86.744 13.0806 86.4778 13.0977 86.203 13.1321C85.9282 13.1664 85.6706 13.2351 85.4301 13.3382C85.2068 13.4412 85.0093 13.5872 84.8376 13.7762C84.683 13.9479 84.5799 14.1626 84.5284 14.4202H80.7928C80.8787 13.5958 81.1019 12.9088 81.4626 12.3592C81.8405 11.7924 82.3128 11.3373 82.8796 10.9938C83.4464 10.6503 84.0733 10.4098 84.7603 10.2724C85.4645 10.1178 86.1858 10.0405 86.9244 10.0405C87.3366 10.0405 87.7574 10.0663 88.1868 10.1178C88.6161 10.1522 89.0369 10.238 89.4491 10.3754C89.8613 10.4957 90.2478 10.6674 90.6085 10.8907C90.9863 11.0968 91.3384 11.3716 91.6647 11.7151C92.2487 12.385 92.6094 13.1578 92.7468 14.0338C92.9014 14.8925 92.9701 15.7341 92.9529 16.5586V23.901H89.6295L89.5522 22.2264ZM89.4234 17.8982H86.7698C86.5122 17.8982 86.2202 17.924 85.8938 17.9755C85.5675 18.027 85.2841 18.1215 85.0437 18.2589C84.8032 18.3963 84.5971 18.5766 84.4254 18.7999C84.2708 19.0232 84.1935 19.298 84.1935 19.6243C84.1935 19.8991 84.245 20.1396 84.3481 20.3457C84.4683 20.5518 84.6143 20.7236 84.786 20.861C84.975 20.9984 85.1982 21.11 85.4559 21.1959C85.7135 21.2646 85.9711 21.2989 86.2288 21.2989C86.7269 21.3161 87.1906 21.2302 87.62 21.0413C88.0665 20.8524 88.453 20.5862 88.7793 20.2427C88.9854 19.9678 89.14 19.6587 89.243 19.3152C89.3633 18.9545 89.4234 18.4822 89.4234 17.8982Z" fill="#D9D7E6"/>
<path d="M74.4894 22.5097C73.9742 23.0937 73.3559 23.5059 72.6345 23.7464C71.9131 23.9868 71.1317 24.107 70.2901 24.107C69.4485 24.107 68.6241 23.9782 67.8168 23.7206C67.0268 23.4458 66.3397 23.0078 65.7558 22.4067C65.1031 21.7197 64.648 20.9296 64.3904 20.0365C64.1327 19.1434 64.0039 18.2245 64.0039 17.2799C64.0039 15.0471 64.6222 13.2608 65.8588 11.9212C66.3913 11.3372 67.0783 10.8821 67.9199 10.5557C68.7786 10.2294 69.6975 10.0748 70.6765 10.092C71.312 10.0576 71.999 10.1693 72.7375 10.4269C73.4761 10.6845 74.1116 11.1139 74.644 11.7151L75.0304 10.3239H78.1735V23.0508C78.1735 23.6004 78.1392 24.1414 78.0705 24.6738C78.0189 25.2234 77.9245 25.7473 77.7871 26.2454C77.6497 26.7606 77.4436 27.2501 77.1688 27.7139C76.8596 28.2806 76.4818 28.7615 76.0352 29.1566C75.6058 29.5516 75.1249 29.8779 74.5925 30.1356C74.06 30.4104 73.4933 30.6079 72.8921 30.7281C72.291 30.8483 71.6813 30.9085 71.063 30.9085C70.2729 30.9085 69.5172 30.814 68.7958 30.6251C68.0745 30.4533 67.4132 30.1613 66.8121 29.7491C66.2281 29.3541 65.7386 28.8474 65.3436 28.2291C64.9657 27.6108 64.7167 26.8723 64.5965 26.0135H68.4609C68.5296 26.4257 68.8044 26.795 69.2853 27.1213C69.7662 27.4476 70.3502 27.6108 71.0372 27.6108C71.7757 27.6108 72.3769 27.4648 72.8406 27.1728C73.3215 26.8808 73.6822 26.4944 73.9226 26.0135C74.1631 25.5326 74.3177 24.983 74.3864 24.3647C74.4551 23.7464 74.4894 23.128 74.4894 22.5097ZM71.1145 20.8867C71.6813 20.8867 72.1793 20.7836 72.6087 20.5775C73.0553 20.3714 73.416 20.0966 73.6908 19.7531C73.9656 19.3924 74.1717 18.9802 74.3091 18.5165C74.4465 18.0356 74.5152 17.5289 74.5152 16.9965C74.5152 15.9316 74.2146 15.0557 73.6135 14.3686C73.0295 13.6645 72.1879 13.3038 71.0887 13.2866C70.5219 13.2866 70.0153 13.3897 69.5687 13.5958C69.1393 13.8019 68.7786 14.0767 68.4867 14.4202C68.2119 14.7637 68.0058 15.1673 67.8683 15.631C67.7309 16.0948 67.6622 16.5928 67.6622 17.1253C67.6622 17.6921 67.7309 18.2073 67.8683 18.6711C68.0229 19.1176 68.2462 19.5126 68.5382 19.8562C68.8302 20.1825 69.1908 20.4401 69.6202 20.629C70.0496 20.8008 70.5477 20.8867 71.1145 20.8867Z" fill="#D9D7E6"/>
<path d="M57.735 12.0239C58.2846 11.3712 58.8685 10.8817 59.4869 10.5554C60.1223 10.2291 60.8781 10.0659 61.754 10.0659C61.9773 10.0659 62.192 10.0745 62.3981 10.0917C62.6042 10.1089 62.7931 10.1346 62.9648 10.169V13.5182C62.5698 13.5182 62.1662 13.5267 61.754 13.5439C61.359 13.5439 60.9811 13.5783 60.6204 13.647C60.2597 13.7157 59.9076 13.8273 59.5641 13.9819C59.2378 14.1193 58.9458 14.3254 58.6882 14.6002C58.2932 15.0468 58.0441 15.5277 57.9411 16.0429C57.8552 16.5582 57.8123 17.1421 57.8123 17.7948V23.9006H54.1797V10.3235H57.5289L57.735 12.0239Z" fill="#D9D7E6"/>
<path d="M44.9682 24.1071C42.7697 24.1071 41.078 23.4888 39.8929 22.2522C38.7078 20.9984 38.1152 19.2637 38.1152 17.048C38.1152 15.9832 38.2698 15.0214 38.579 14.1626C38.9053 13.2867 39.3519 12.5395 39.9186 11.9212C40.5026 11.3029 41.2154 10.8392 42.057 10.53C42.9157 10.2037 43.8861 10.0405 44.9682 10.0405C46.033 10.0405 46.9863 10.2037 47.8279 10.53C48.6866 10.8392 49.408 11.3029 49.992 11.9212C50.5931 12.5395 51.0482 13.2867 51.3574 14.1626C51.6837 15.0214 51.8469 15.9832 51.8469 17.048C51.8469 19.2808 51.2457 21.0155 50.0435 22.2522C48.8584 23.4888 47.1666 24.1071 44.9682 24.1071ZM44.9682 13.2867C43.8518 13.2867 43.0274 13.6473 42.4949 14.3687C41.9625 15.0901 41.6963 15.9918 41.6963 17.0738C41.6963 18.173 41.9625 19.0833 42.4949 19.8047C43.0274 20.526 43.8518 20.8867 44.9682 20.8867C46.0846 20.8867 46.9004 20.526 47.4157 19.8047C47.9309 19.0833 48.1885 18.173 48.1885 17.0738C48.1885 15.9918 47.9309 15.0901 47.4157 14.3687C46.9004 13.6473 46.0846 13.2867 44.9682 13.2867Z" fill="#D9D7E6"/>
<path d="M13.282 3.59439C13.282 2.53558 12.4193 1.66307 11.3715 1.81537C10.2844 1.97338 9.21865 2.26601 8.1992 2.68828C6.58775 3.35576 5.12355 4.33411 3.89021 5.56745C2.65686 6.8008 1.67851 8.265 1.01103 9.87644C0.343548 11.4879 -6.97362e-07 13.215 -7.38961e-07 14.9592C-7.8056e-07 16.7035 0.343548 18.4306 1.01103 20.042C1.67851 21.6535 2.65686 23.1177 3.89021 24.351C5.12355 25.5844 6.58775 26.5627 8.1992 27.2302C9.81064 27.8977 11.5378 28.2412 13.282 28.2412L13.282 21.8659C12.375 21.8659 11.4769 21.6872 10.6389 21.3401C9.80099 20.9931 9.03961 20.4843 8.39827 19.843C7.75693 19.2016 7.24819 18.4403 6.9011 17.6023C6.554 16.7643 6.37536 15.8662 6.37536 14.9592C6.37536 14.0523 6.554 13.1541 6.9011 12.3162C7.24819 11.4782 7.75693 10.7169 8.39827 10.0755C9.03961 9.43417 9.80099 8.92543 10.6389 8.57834C10.8844 8.47669 11.1349 8.38948 11.3894 8.31698C12.4077 8.02684 13.282 7.19427 13.282 6.13547L13.282 3.59439Z" fill="#D9D7E6"/>
<path d="M24.4676 14.9595C25.5264 14.9595 26.3989 15.8222 26.2466 16.87C26.0886 17.9571 25.796 19.0228 25.3737 20.0423C24.7063 21.6537 23.7279 23.1179 22.4946 24.3513C21.2612 25.5846 19.797 26.563 18.1856 27.2304C16.5741 27.8979 14.847 28.2415 13.1028 28.2415L13.1028 21.8661C14.0098 21.8661 14.9079 21.6875 15.7458 21.3404C16.5838 20.9933 17.3452 20.4845 17.9865 19.8432C18.6278 19.2019 19.1366 18.4405 19.4837 17.6025C19.5853 17.3571 19.6725 17.1065 19.745 16.8521C20.0352 15.8338 20.8677 14.9595 21.9265 14.9595L24.4676 14.9595Z" fill="#D9D7E6"/>
<path d="M26.7088 1.68311C27.7676 1.68311 28.6402 2.54581 28.4879 3.59361C28.3298 4.6807 28.0372 5.74645 27.6149 6.76591C26.9475 8.37735 25.9691 9.84155 24.7358 11.0749C23.5024 12.3082 22.0382 13.2866 20.4268 13.9541C19.4073 14.3763 18.3416 14.669 17.2545 14.827C16.2067 14.9793 15.344 14.1068 15.344 13.048L15.344 10.5069C15.344 9.44808 16.2183 8.61551 17.2366 8.32537C17.491 8.25287 17.7416 8.16566 17.987 8.06401C18.825 7.71692 19.5864 7.20818 20.2277 6.56684C20.8691 5.9255 21.3778 5.16412 21.7249 4.32616C21.8265 4.08075 21.9137 3.83017 21.9862 3.57573C22.2764 2.55745 23.1089 1.68311 24.1678 1.68311L26.7088 1.68311Z" fill="#D9D7E6"/>
</svg>
